<?xml version="1.0" encoding="UTF-8"?>
<svg width="39px" height="33px" viewBox="0 0 39 33" version="1.1" xmlns="http://www.w3.org/2000/svg" xmlns:xlink="http://www.w3.org/1999/xlink">
    <!-- Generator: Sketch 52.2 (67145) - http://www.bohemiancoding.com/sketch -->
    <title>Chat</title>
    <desc>Created with Sketch.</desc>
    <g id="Chat" stroke="none" stroke-width="1" fill="none" fill-rule="evenodd" opacity="0.4">
        <g id="support" fill="#000000">
            <path d="M35.4163278,0.783783784 L9.10053828,0.783783784 C7.52159091,0.783783784 6.25843302,2.10871747 6.25843302,3.68431429 L6.25843302,20.3713169 C6.25843302,21.9827228 7.55667863,23.2718474 9.10053828,23.2718474 L27.2408892,23.2718474 L31.3461523,27.4973116 C31.5215909,27.6763567 31.7321172,27.7837838 31.9777313,27.7837838 C32.4689593,27.7837838 32.890012,27.3898846 32.890012,26.8527493 L32.890012,23.2718474 L35.4163278,23.2718474 C36.9952751,23.2718474 38.258433,21.9469138 38.258433,20.3713169 L38.258433,3.68431429 C38.258433,2.07290845 36.9601874,0.783783784 35.4163278,0.783783784 Z M13.135626,15.1432002 C11.6970295,15.1432002 10.5040471,13.9256936 10.5040471,12.4575238 C10.5040471,10.9893541 11.6970295,9.77184744 13.135626,9.77184744 C14.5742225,9.77184744 15.7672049,10.9893541 15.7672049,12.4575238 C15.7672049,13.9256936 14.6093102,15.1432002 13.135626,15.1432002 Z M22.3636962,15.1432002 C20.9250997,15.1432002 19.7321172,13.9256936 19.7321172,12.4575238 C19.7321172,10.9893541 20.9250997,9.77184744 22.3636962,9.77184744 C23.8022927,9.77184744 24.9952751,10.9893541 24.9952751,12.4575238 C24.9952751,13.9256936 23.8022927,15.1432002 22.3636962,15.1432002 Z M31.5566786,15.1432002 C30.1180821,15.1432002 28.9250997,13.9256936 28.9250997,12.4575238 C28.9250997,10.9893541 30.1180821,9.77184744 31.5566786,9.77184744 C32.9952751,9.77184744 34.1882576,10.9893541 34.1882576,12.4575238 C34.1882576,13.9256936 32.9952751,15.1432002 31.5566786,15.1432002 Z" id="Shape" fill-rule="nonzero"></path>
            <path d="M4.99214001,20.5423351 L4.99214001,14.7837838 L2.1174934,14.7837838 C1.10085009,14.7837838 0.259490106,15.6529991 0.259490106,16.7033009 L0.259490106,27.7857959 C0.22443344,28.9085323 1.06579342,29.7777476 2.1174934,29.7777476 L3.7651567,29.7777476 L3.7651567,32.1680896 C3.7651567,32.4940454 4.04561003,32.7837838 4.36112002,32.7837838 C4.53640335,32.7837838 4.67663002,32.7113492 4.78180001,32.6026973 L7.48116329,29.8139649 L19.4004297,29.8139649 C20.417073,29.8139649 21.258433,28.9447496 21.258433,27.8944478 L21.258433,25.1419327 L9.44433659,25.1419327 C6.99036997,25.1419327 4.99214001,23.0775464 4.99214001,20.5423351 Z" id="Path"></path>
        </g>
    </g>
</svg>