<?xml version="1.0" encoding="UTF-8"?>
<svg width="30px" height="30px" viewBox="0 0 30 30" version="1.1" xmlns="http://www.w3.org/2000/svg" xmlns:xlink="http://www.w3.org/1999/xlink">
    <!-- Generator: Sketch 52.2 (67145) - http://www.bohemiancoding.com/sketch -->
    <title>Shape 2</title>
    <desc>Created with Sketch.</desc>
    <g id="Page-1" stroke="none" stroke-width="1" fill="none" fill-rule="evenodd">
        <g id="Shape-2" fill="#0066A4" fill-rule="nonzero">
            <path d="M4.39340426,4.39337066 C3.0162262,5.77054871 1.93484882,7.37455767 1.17930571,9.16091825 C0.396786114,11.0110414 0,12.9755543 0,15 C0,17.0244457 0.396786114,18.9889586 1.17930571,20.8390817 C1.93488242,22.6254759 3.0162598,24.2294849 4.39340426,25.6066293 C5.77058231,26.9837738 7.37459127,28.0652184 9.16095185,28.8207279 C11.0110414,29.6032475 12.9755543,30 15,30 C17.0244457,30 18.9889586,29.6032475 20.8390817,28.8206943 C22.6254423,28.0651512 24.2294849,26.9837066 25.6066293,25.6065622 C26.9838074,24.2293841 28.0652184,22.6254087 28.8207279,20.8390146 C29.6032475,18.9889586 30,17.0244457 30,15 C30,12.9755543 29.6032475,11.0110414 28.8206943,9.16091825 C28.0651176,7.37455767 26.9837066,5.77054871 25.6065622,4.39337066 C24.2293841,3.0162262 22.6254087,1.93481523 20.8390146,1.17927212 C18.9889586,0.396786114 17.0244457,0 15,0 C12.9755543,0 11.0110414,0.396786114 9.16091825,1.17930571 C7.37459127,1.93484882 5.77054871,3.0162262 4.39340426,4.39337066 Z M15,27.4804031 C11.6663718,27.4804031 8.53226204,26.182206 6.175028,23.824972 C3.81779395,21.467738 2.51959686,18.3336282 2.51959686,15 C2.51959686,11.6663718 3.81779395,8.53226204 6.175028,6.175028 C8.53226204,3.81779395 11.6663718,2.51959686 15,2.51959686 L15,27.4804031 Z" id="Shape"></path>
        </g>
    </g>
</svg>