<?xml version="1.0" encoding="UTF-8"?>
<svg width="35px" height="35px" viewBox="0 0 35 35" version="1.1" xmlns="http://www.w3.org/2000/svg" xmlns:xlink="http://www.w3.org/1999/xlink">
    <!-- Generator: Sketch 52.2 (67145) - http://www.bohemiancoding.com/sketch -->
    <title>Group Copy 3</title>
    <desc>Created with Sketch.</desc>
    <g id="Page-1" stroke="none" stroke-width="1" fill="none" fill-rule="evenodd">
        <g id="Group-Copy-3" fill="#0066A4">
            <g id="Group-Copy">
                <path d="M19.8707835,7 L22.4855358,7 C22.5167591,5.65378592 22.6456554,4.31446473 22.8707835,3 L20.8992314,3 C20.3069492,4.20104441 19.9538855,5.57566579 19.8707835,7 Z" id="Path"></path>
                <path d="M26.8707835,12 L26.8707835,8 L23.8707835,8 C23.9126042,9.34802362 24.0812484,10.6883192 24.3753546,12 L26.8707835,12 Z" id="Path"></path>
                <path d="M26.8707835,3 L26.8707835,0 C26.4547271,0.042840143 26.0424678,0.130424435 25.6378028,0.263942866 L25.6632977,0.279650949 C25.355369,1.1631099 25.090836,2.07203489 24.8707835,3 L26.8707835,3 Z" id="Path"></path>
                <path d="M22.8707835,12 C22.6456554,10.6856039 22.5167591,9.34614384 22.4855358,8 L19.8707835,8 C19.9538855,9.42384213 20.3069492,10.7986006 20.8992314,12 L22.8707835,12 Z" id="Path"></path>
                <path d="M22.378411,3 C22.5216895,2.32674423 22.68351,1.65860465 22.8707835,1 C22.1235437,1.49837211 21.4462576,2.17534887 20.8707835,3 L22.378411,3 Z" id="Path"></path>
                <path d="M23.8707835,7 L26.8707835,7 L26.8707835,3 L24.3753546,3 C24.0812484,4.31133161 23.9126042,5.65169712 23.8707835,7 Z" id="Path"></path>
                <path d="M25.6378028,15.734608 C26.0424678,15.8683751 26.4547271,15.9569185 26.8707835,16 L26.8707835,13 L24.8707835,13 C25.090836,13.9280387 25.355369,14.8367978 25.6632977,15.7203269 L25.6378028,15.734608 Z" id="Path"></path>
                <path d="M22.3769355,13 L20.8707835,13 C21.4467147,13.8242819 22.1237752,14.5015699 22.8707835,15 C22.6820088,14.3413188 22.520202,13.6733341 22.3769355,13 Z" id="Path"></path>
                <path d="M32.3698547,3 L33.8707835,3 C33.2924553,2.18443804 32.6161175,1.50816523 31.8707835,1 C32.0600803,1.65874161 32.2247861,2.32660903 32.3698547,3 Z" id="Path"></path>
                <path d="M34.8707835,8 L32.2658358,8 C32.2338178,9.34614384 32.1016412,10.6856039 31.8707835,12 L33.816654,12 C34.4235173,10.7986006 34.7860591,9.42384213 34.8707835,8 Z" id="Path"></path>
                <path d="M32.3696782,13 C32.2241304,13.6732317 32.0593059,14.3418998 31.8707835,15 C32.6160307,14.4917738 33.2921293,13.8159001 33.8707835,13 L32.3696782,13 Z" id="Path"></path>
                <path d="M30.8707835,8 L27.8707835,8 L27.8707835,12 L30.3808873,12 C30.6662509,10.6883192 30.8301791,9.34802362 30.8707835,8 Z" id="Path"></path>
                <path d="M33.816654,3 L31.8707835,3 C32.1016412,4.31446473 32.2338178,5.65378592 32.2658358,7 L34.8707835,7 C34.7860591,5.57566579 34.4235173,4.20104441 33.816654,3 Z" id="Path"></path>
                <path d="M29.8707835,13 L27.8707835,13 L27.8707835,16 C28.2896344,15.9559664 28.7044929,15.8609965 29.1110196,15.7158045 C29.4062808,14.8337036 29.6598826,13.9266106 29.8707835,13 Z" id="Path"></path>
                <path d="M27.8707835,7 L30.8707835,7 C30.8301791,5.65169712 30.6662509,4.31133161 30.3808873,3 L27.8707835,3 L27.8707835,7 Z" id="Path"></path>
                <path d="M27.8707835,0 L27.8707835,3 L29.8707835,3 C29.6598826,2.07346292 29.4062808,1.16620389 29.1110196,0.283934933 C28.7044929,0.138992464 28.2896344,0.0442681173 27.8707835,0 Z" id="Path"></path>
                <polygon id="Path" points="7.52300644 31 6.66634699 33.8569638 5.87078349 33.8569638 5.87078349 35 11.8707835 35 11.8707835 33.8569638 11.07522 33.8569638 10.2183726 31"></polygon>
                <path d="M16.8707835,18.2308582 C16.8707835,17.5506471 16.3197508,17 15.6401181,17 L2.10164171,17 C1.42200901,17 0.870783492,17.5506471 0.870783492,18.2308582 L0.870783492,25 L16.8707835,25 L16.8707835,18.2308582 Z" id="Path"></path>
                <path d="M2.10164171,30 L15.6401181,30 C16.3197508,30 16.8707835,29.3281899 16.8707835,28.5001175 L16.8707835,27 L0.870783492,27 L0.870783492,28.5001175 C0.870783492,29.3281899 1.42200901,30 2.10164171,30 Z" id="Path"></path>
                <polygon id="Path" points="14.8707835 3 16.8707835 3 16.8707835 5 14.8707835 5"></polygon>
                <polygon id="Path" points="12.8707835 3 14.8707835 3 14.8707835 5 12.8707835 5"></polygon>
                <polygon id="Path" points="10.8707835 3 12.8707835 3 12.8707835 5 10.8707835 5"></polygon>
                <polygon id="Path" points="7.87078349 3 9.87078349 3 9.87078349 5 7.87078349 5"></polygon>
                <polygon id="Path" points="7.87078349 11 9.87078349 11 9.87078349 13 7.87078349 13"></polygon>
                <polygon id="Path" points="7.87078349 14 9.87078349 14 9.87078349 16 7.87078349 16"></polygon>
                <polygon id="Path" points="18.8707835 24 20.8707835 24 20.8707835 26 18.8707835 26"></polygon>
                <polygon id="Path" points="21.8707835 24 23.8707835 24 23.8707835 26 21.8707835 26"></polygon>
                <polygon id="Path" points="30.8707835 24 32.8707835 24 32.8707835 26 30.8707835 26"></polygon>
                <polygon id="Path" points="30.8707835 23 32.8707835 23 32.8707835 25 30.8707835 25"></polygon>
                <polygon id="Path" points="30.8707835 20 32.8707835 20 32.8707835 22 30.8707835 22"></polygon>
                <polygon id="Path" points="30.8707835 17 32.8707835 17 32.8707835 19 30.8707835 19"></polygon>
                <path d="M10.8707835,7.99989555 C10.8707835,9.10438096 9.97532661,10 8.87078352,10 C7.76624043,10 6.87078349,9.10438096 6.87078349,7.99989555 C6.87078349,6.89520128 7.76624043,6 8.87078352,6 C9.97532661,6 10.8707835,6.89520128 10.8707835,7.99989555 Z" id="Path"></path>
                <path d="M28.8707835,26.0001044 C28.8707835,27.104381 27.9753266,28 26.8707835,28 C25.7660316,28 24.8707835,27.104381 24.8707835,26.0001044 C24.8707835,24.8954102 25.7660316,24 26.8707835,24 C27.9753266,24 28.8707835,24.8954102 28.8707835,26.0001044 Z" id="Path"></path>
            </g>
        </g>
    </g>
</svg>