<?xml version="1.0" encoding="UTF-8"?>
<svg width="17px" height="23px" viewBox="0 0 17 23" version="1.1" xmlns="http://www.w3.org/2000/svg" xmlns:xlink="http://www.w3.org/1999/xlink">
    <!-- Generator: Sketch 52.2 (67145) - http://www.bohemiancoding.com/sketch -->
    <title>002-document copy 8</title>
    <desc>Created with Sketch.</desc>
    <g id="Page-1" stroke="none" stroke-width="1" fill="none" fill-rule="evenodd">
        <g id="Notes-Copy-5" transform="translate(-1376.000000, -782.000000)" fill="#0066A4">
            <g id="002-document-copy-8" transform="translate(1376.000000, 782.870783)">
                <path d="M8.71577455,6.54429625 C8.46400453,6.29252623 8.05596924,6.29252623 7.80419922,6.54429625 L5.04278564,9.30570983 C4.79101562,9.55747985 4.79101562,9.96551514 5.04278564,10.2172852 C5.29438783,10.4688873 5.70259095,10.4688873 5.95419309,10.2172852 L7.61537171,8.55610658 L7.61537171,13.2133484 C7.61537171,13.5691833 7.904068,13.8578796 8.25990296,13.8578796 C8.61590576,13.8578796 8.90443421,13.5691833 8.90443421,13.2133484 L8.90443421,8.55610658 L10.5656128,10.2171173 C10.8175506,10.4690552 11.2254181,10.4688873 11.4771881,10.2171173 C11.7289581,9.96551514 11.7289581,9.55747985 11.4771881,9.30570983 L8.71577455,6.54429625 Z" id="Path" transform="translate(8.259987, 10.106674) scale(1, -1) translate(-8.259987, -10.106674) "></path>
                <path d="M11.0214844,15.5940552 L5.49848939,15.5940552 C5.14265443,15.5940552 4.85395814,15.8825836 4.85395814,16.2385864 C4.85395814,16.5944214 5.14265443,16.8831177 5.49848939,16.8831177 L11.0214844,16.8831177 C11.3773193,16.8831177 11.6660156,16.5944214 11.6660156,16.2385864 C11.6660156,15.8825836 11.3774872,15.5940552 11.0214844,15.5940552 Z" id="Path" transform="translate(8.259987, 16.238586) scale(1, -1) translate(-8.259987, -16.238586) "></path>
                <path d="M14.4732513,0 L4.80813601,0 C4.63726807,0 4.47328187,0.0679778945 4.35243226,0.188827504 L0.210311879,4.33094789 C0.0894622695,4.4517975 0.021484375,4.61578369 0.021484375,4.78665163 L0.021484375,19.974762 C0.021484375,21.0914459 0.930038441,22 2.04672239,22 L14.4732513,22 C15.5867462,22 16.4984894,21.0996704 16.4984894,19.974762 L16.4984894,2.02523802 C16.4984894,0.911743164 15.5983276,0 14.4732513,0 Z M4.85395814,1.51011657 L4.85395814,4.09629821 C4.85395814,4.50231934 4.52380371,4.83247377 4.11778258,4.83247377 L1.53160094,4.83247377 L4.85395814,1.51011657 Z M15.2094269,19.974762 C15.2094269,20.3757477 14.8853149,20.7109375 14.4732513,20.7109375 L2.04672239,20.7109375 C1.64086914,20.7109375 1.31054687,20.3806152 1.31054687,19.974762 L1.31054687,6.1217041 L4.11778258,6.1217041 C5.23446653,6.1217041 6.14302064,5.21315004 6.14302064,4.09646609 L6.14302064,1.2890625 L14.4732513,1.2890625 C14.8744049,1.2890625 15.2094269,1.61334229 15.2094269,2.02523802 L15.2094269,19.974762 Z" id="Shape" fill-rule="nonzero"></path>
            </g>
        </g>
    </g>
</svg>