<?xml version="1.0" encoding="UTF-8"?>
<svg width="100px" height="100px" viewBox="0 0 100 100" version="1.1" xmlns="http://www.w3.org/2000/svg" xmlns:xlink="http://www.w3.org/1999/xlink">
    <!-- Generator: Sketch 49.1 (51147) - http://www.bohemiancoding.com/sketch -->
    <title>Envolope</title>
    <desc>Created with Sketch.</desc>
    <defs></defs>
    <g id="Admin" stroke="none" stroke-width="1" fill="none" fill-rule="evenodd">
        <g id="Send-Invite" transform="translate(-110.000000, -103.000000)">
            <g id="Group-3" transform="translate(10.000000, 70.000000)">
                <g id="Envolope" transform="translate(102.000000, 35.000000)">
                    <circle id="Oval-2" stroke="#C6D9E9" stroke-width="2" cx="48" cy="48" r="49"></circle>
                    <g transform="translate(21.120000, 21.120000)" fill-rule="nonzero" id="Shape">
                        <polygon stroke="#E1DA9F" fill="#F2ECBF" points="48.1986207 0 5.56137931 0 5.56137931 28.3361545 19.4648276 38.9296552 34.2951724 38.9296552 48.1986207 28.3361545"></polygon>
                        <polygon fill="#86D7FB" points="0 53.76 0.119569655 53.76 53.3345545 53.76 53.6404303 53.76 53.76 53.76 34.2951724 38.9296552 19.4648276 38.9296552"></polygon>
                        <polygon fill="#2A55C5" points="5.66055724 28.41216 5.56137931 28.3361545 5.56137931 18.9207393 0 24.0983834 0 24.0993103"></polygon>
                        <polygon fill="#2A55C5" points="48.1986207 18.9207393 48.1986207 28.3361545 48.0058262 28.4826041 48.0067531 28.4826041 53.76 24.0993103 53.76 24.0983834"></polygon>
                        <path d="M29.6606897,9.26896552 L24.0993103,9.26896552 C23.5867366,9.26896552 23.1724138,8.85464276 23.1724138,8.34206897 C23.1724138,7.82949517 23.5867366,7.41517241 24.0993103,7.41517241 L29.6606897,7.41517241 C30.1732634,7.41517241 30.5875862,7.82949517 30.5875862,8.34206897 C30.5875862,8.85464276 30.1732634,9.26896552 29.6606897,9.26896552 Z" fill="#BAB395"></path>
                        <path d="M38.0027586,24.0993103 L32.4413793,24.0993103 C31.9288055,24.0993103 31.5144828,23.6849876 31.5144828,23.1724138 C31.5144828,22.65984 31.9288055,22.2455172 32.4413793,22.2455172 L38.0027586,22.2455172 C38.5153324,22.2455172 38.9296552,22.65984 38.9296552,23.1724138 C38.9296552,23.6849876 38.5153324,24.0993103 38.0027586,24.0993103 Z" fill="#BAB395"></path>
                        <path d="M20.3917241,16.6841379 L15.7572414,16.6841379 C15.2446676,16.6841379 14.8303448,16.2698152 14.8303448,15.7572414 C14.8303448,15.2446676 15.2446676,14.8303448 15.7572414,14.8303448 L20.3917241,14.8303448 C20.9042979,14.8303448 21.3186207,15.2446676 21.3186207,15.7572414 C21.3186207,16.2698152 20.9042979,16.6841379 20.3917241,16.6841379 Z" fill="#BAB395"></path>
                        <path d="M34.2951724,16.6841379 L27.8068966,16.6841379 C27.2943228,16.6841379 26.88,16.2698152 26.88,15.7572414 C26.88,15.2446676 27.2943228,14.8303448 27.8068966,14.8303448 L34.2951724,14.8303448 C34.8077462,14.8303448 35.222069,15.2446676 35.222069,15.7572414 C35.222069,16.2698152 34.8077462,16.6841379 34.2951724,16.6841379 Z" fill="#BAB395"></path>
                        <path d="M24.0993103,16.6841379 C23.8583172,16.6841379 23.6163972,16.5821793 23.4412138,16.4153379 C23.2734455,16.2392276 23.1724138,15.9982345 23.1724138,15.7572414 C23.1724138,15.5162483 23.2734455,15.2743283 23.4412138,15.0991448 C23.7841655,14.7561931 24.4144552,14.7561931 24.7574069,15.0991448 C24.9242483,15.2743283 25.0262069,15.5162483 25.0262069,15.7572414 C25.0262069,15.9982345 24.9242483,16.2392276 24.7574069,16.4153379 C24.5812966,16.5821793 24.3403034,16.6841379 24.0993103,16.6841379 Z" fill="#BAB395"></path>
                        <path d="M28.7337931,24.0993103 L19.4648276,24.0993103 C18.9522538,24.0993103 18.537931,23.6849876 18.537931,23.1724138 C18.537931,22.65984 18.9522538,22.2455172 19.4648276,22.2455172 L28.7337931,22.2455172 C29.2463669,22.2455172 29.6606897,22.65984 29.6606897,23.1724138 C29.6606897,23.6849876 29.2463669,24.0993103 28.7337931,24.0993103 Z" fill="#BAB395"></path>
                        <path d="M15.7572414,24.0993103 C15.5162483,24.0993103 15.2743283,23.9973517 15.0991448,23.8305103 C14.9313766,23.6544 14.8303448,23.4134069 14.8303448,23.1724138 C14.8303448,22.9314207 14.9313766,22.6895007 15.0991448,22.5143172 C15.4420966,22.1713655 16.0631172,22.1713655 16.4153379,22.5143172 C16.5821793,22.6895007 16.6841379,22.9314207 16.6841379,23.1724138 C16.6841379,23.4134069 16.5821793,23.6544 16.4153379,23.8305103 C16.2392276,24.0056938 15.9982345,24.0993103 15.7572414,24.0993103 Z" fill="#BAB395"></path>
                        <path d="M38.0027586,16.6841379 C37.7617655,16.6841379 37.5198455,16.5821793 37.3446621,16.4153379 C37.1768938,16.2392276 37.0758621,15.9982345 37.0758621,15.7572414 C37.0758621,15.5060524 37.1768938,15.2743283 37.3446621,15.0991448 C37.6876138,14.7561931 38.3179034,14.7561931 38.6608552,15.0991448 C38.8276966,15.2743283 38.9296552,15.5060524 38.9296552,15.7572414 C38.9296552,16.0075034 38.8276966,16.2392276 38.6608552,16.4153379 C38.4847448,16.5821793 38.2437517,16.6841379 38.0027586,16.6841379 Z" fill="#BAB395"></path>
                        <path d="M20.3917241,31.5144828 L15.7572414,31.5144828 C15.2446676,31.5144828 14.8303448,31.10016 14.8303448,30.5875862 C14.8303448,30.0750124 15.2446676,29.6606897 15.7572414,29.6606897 L20.3917241,29.6606897 C20.9042979,29.6606897 21.3186207,30.0750124 21.3186207,30.5875862 C21.3186207,31.10016 20.9042979,31.5144828 20.3917241,31.5144828 Z" fill="#BAB395"></path>
                        <path d="M34.2951724,31.5144828 L27.8068966,31.5144828 C27.2943228,31.5144828 26.88,31.10016 26.88,30.5875862 C26.88,30.0750124 27.2943228,29.6606897 27.8068966,29.6606897 L34.2951724,29.6606897 C34.8077462,29.6606897 35.222069,30.0750124 35.222069,30.5875862 C35.222069,31.10016 34.8077462,31.5144828 34.2951724,31.5144828 Z" fill="#BAB395"></path>
                        <path d="M24.0993103,31.5144828 C23.8481214,31.5144828 23.6163972,31.4125241 23.4412138,31.2456828 C23.2734455,31.0695724 23.1724138,30.8285793 23.1724138,30.5875862 C23.1724138,30.3363972 23.2734455,30.1046731 23.4412138,29.9294897 C23.7841655,29.5865379 24.4051862,29.5865379 24.7574069,29.9294897 C24.9242483,30.1046731 25.0262069,30.3465931 25.0262069,30.5875862 C25.0262069,30.8285793 24.9242483,31.0695724 24.7574069,31.2456828 C24.5812966,31.4125241 24.3403034,31.5144828 24.0993103,31.5144828 Z" fill="#BAB395"></path>
                        <path d="M38.0027586,31.5144828 C37.7617655,31.5144828 37.5198455,31.4125241 37.3446621,31.2456828 C37.1768938,31.0695724 37.0758621,30.8285793 37.0758621,30.5875862 C37.0758621,30.3465931 37.1768938,30.1046731 37.3446621,29.9294897 C37.6876138,29.5865379 38.3179034,29.5865379 38.6608552,29.9294897 C38.8276966,30.1046731 38.9296552,30.3465931 38.9296552,30.5875862 C38.9296552,30.8285793 38.8276966,31.0695724 38.6608552,31.2456828 C38.4847448,31.4125241 38.2530207,31.5144828 38.0027586,31.5144828 Z" fill="#BAB395"></path>
                        <polygon fill="#31B6F3" points="0 53.76 0 24.0993103 19.4648276 38.9296552"></polygon>
                        <polygon fill="#167CD8" points="53.76 53.76 53.76 24.0993103 34.2951724 38.9296552"></polygon>
                    </g>
                </g>
            </g>
        </g>
    </g>
</svg>