<?xml version="1.0" encoding="UTF-8"?>
<svg width="17px" height="10px" viewBox="0 0 17 10" version="1.1" xmlns="http://www.w3.org/2000/svg" xmlns:xlink="http://www.w3.org/1999/xlink">
    <!-- Generator: Sketch 49.1 (51147) - http://www.bohemiancoding.com/sketch -->
    <title>view</title>
    <desc>Created with Sketch.</desc>
    <defs></defs>
    <g id="Admin" stroke="none" stroke-width="1" fill="none" fill-rule="evenodd">
        <g id="Login-1" transform="translate(-818.000000, -363.000000)" fill="#000000" fill-rule="nonzero">
            <g id="Group" transform="translate(570.000000, 106.000000)">
                <g id="Group-3" transform="translate(20.000000, 149.000000)">
                    <g id="Password" transform="translate(0.000000, 77.000000)">
                        <g id="view" transform="translate(228.000000, 31.000000)">
                            <path d="M14.5891429,2.73171429 C11.1922857,-0.665142857 5.66571429,-0.665142857 2.26885714,2.73171429 L0,5.00028571 L2.32514286,7.32542857 C4.02342857,9.02371429 6.25428571,9.87314286 8.48542857,9.87314286 C10.7165714,9.87314286 12.9471429,9.024 14.6457143,7.32542857 L16.9145714,5.05657143 L14.5891429,2.73171429 Z M14.2414286,6.92142857 C11.0674286,10.0951429 5.90314286,10.0951429 2.72914286,6.92142857 L0.808,5.00028571 L2.67285714,3.13542857 C5.84685714,-0.0382857143 11.0111429,-0.0382857143 14.1851429,3.13542857 L16.1062857,5.05657143 L14.2414286,6.92142857 Z" id="Shape"></path>
                            <path d="M8.16342857,2.73428571 C7.06057143,2.73428571 6.16342857,3.63142857 6.16342857,4.73428571 C6.16342857,4.892 6.29142857,5.02 6.44914286,5.02 C6.60685714,5.02 6.73485714,4.892 6.73485714,4.73428571 C6.73485714,3.94657143 7.37571429,3.30571429 8.16342857,3.30571429 C8.32114286,3.30571429 8.44914286,3.17771429 8.44914286,3.02 C8.44914286,2.86228571 8.32142857,2.73428571 8.16342857,2.73428571 Z" id="Shape"></path>
                            <path d="M8.44914286,1.30571429 C6.40114286,1.30571429 4.73485714,2.972 4.73485714,5.02 C4.73485714,7.068 6.40114286,8.73428571 8.44914286,8.73428571 C10.4971429,8.73428571 12.1634286,7.068 12.1634286,5.02 C12.1634286,2.972 10.4974286,1.30571429 8.44914286,1.30571429 Z M8.44914286,8.16285714 C6.71628571,8.16285714 5.30628571,6.75285714 5.30628571,5.02 C5.30628571,3.28714286 6.71628571,1.87714286 8.44914286,1.87714286 C10.182,1.87714286 11.592,3.28714286 11.592,5.02 C11.592,6.75285714 10.1822857,8.16285714 8.44914286,8.16285714 Z" id="Shape"></path>
                        </g>
                    </g>
                </g>
            </g>
        </g>
    </g>
</svg>