<?xml version="1.0" encoding="UTF-8"?>
<svg width="37px" height="34px" viewBox="0 0 37 34" version="1.1" xmlns="http://www.w3.org/2000/svg" xmlns:xlink="http://www.w3.org/1999/xlink">
    <!-- Generator: Sketch 52.2 (67145) - http://www.bohemiancoding.com/sketch -->
    <title>Group 38</title>
    <desc>Created with Sketch.</desc>
    <g id="Page-1" stroke="none" stroke-width="1" fill="none" fill-rule="evenodd">
        <g id="Group-38" fill="#0066A4">
            <path d="M31.7489674,28.9360453 C33.0301703,27.777863 33.7477855,26.2022508 33.7415264,24.5606897 L33.7415264,24.5520447 C33.7415264,24.2469999 33.4691211,24 33.1333088,24 C32.7974965,24 32.5250912,24.2469999 32.5250912,24.5520447 L32.5250912,24.5614307 C32.5275404,27.3680902 30.0228268,29.645429 26.9300334,29.647899 L21.8441368,29.647899 L24.2016263,27.4276171 C24.354293,27.2858393 24.4117131,27.0805823 24.3518438,26.8898984 C24.2922467,26.6992145 24.1243405,26.5522496 23.9120767,26.5050726 C23.7000849,26.4576486 23.4758472,26.5174226 23.3259018,26.6614236 L19.9119913,29.8766208 C19.6842159,30.0910167 19.6847602,30.4306416 19.9136242,30.6445434 L23.3275346,33.8325707 C23.5615691,34.0514126 23.9466376,34.0563526 24.1877475,33.8436857 C24.4283132,33.6312658 24.4337559,33.281761 24.1999936,33.0631661 L21.7249425,30.7519884 L26.9303055,30.7519884 C28.7391747,30.7551994 30.4745678,30.1013907 31.7489674,28.9360453 Z" id="Path"></path>
            <path d="M18.5696132,3.37036376 L15.1554622,0.171892068 C15.0044297,0.0276671545 14.7801941,-0.0318070236 14.5679322,0.016515762 C14.3559424,0.0645907543 14.1883099,0.213028343 14.1295297,0.404584742 C14.0704773,0.596636792 14.1292576,0.802318356 14.2832835,0.943817291 L16.719397,3.2263867 L11.5524526,3.2263867 C7.79187928,3.23282977 4.74592107,6.00853921 4.74156698,9.43276498 L4.74156698,9.46126304 C4.75054728,9.76111205 5.01995664,10 5.34923468,10 L5.36610682,10 C5.69728978,9.99182225 5.96044013,9.74376538 5.95771879,9.44193396 L5.95771879,9.43747337 C5.95880731,6.62236227 8.46159283,4.33954507 11.5527247,4.3340933 L16.6769446,4.3340933 L14.2811065,6.59807701 C14.1270805,6.7400716 14.0688446,6.94624875 14.1284412,7.13854859 C14.1883099,7.33060064 14.3567588,7.47829485 14.569565,7.52562633 C14.7823711,7.57271009 15.0068789,7.51224468 15.1568229,7.36678073 L18.571246,4.14105001 C18.7990193,3.92570394 18.798203,3.58496645 18.5696132,3.37036376 Z" id="Path"></path>
            <path d="M35.4410979,7 L26.4204914,7 C25.7030345,7.00120634 25.1217814,7.55926844 25.1207762,8.24858249 L25.1207762,15.7516588 C25.1215301,16.1941516 24.9898497,16.6272348 24.741567,17 L35.4410979,17 C36.158806,16.9990349 36.7405617,16.4409728 36.741567,15.7516588 L36.741567,8.24858249 C36.7405617,7.55926844 36.158806,7.00096503 35.4410979,7 Z" id="Path"></path>
            <path d="M35.741567,5.30571496 C35.6443503,4.65654183 35.0647688,4.17418246 34.3805333,4.17341841 L30.6870961,4.17341841 C30.3826963,4.17290909 30.0918431,4.05015453 29.8859881,3.83469727 L28.5459384,2.42887704 C28.2856314,2.15611734 27.9174829,2.00050939 27.5318036,2 L23.1166785,2 C22.3578039,2.00076405 21.7426295,2.59034259 21.741567,3.31770175 L21.741567,15.6820435 C21.7426295,16.4096573 22.3572727,16.9989812 23.1161472,17 L23.3230647,17 C24.0816736,16.9989812 24.6965825,16.4096573 24.697645,15.6820435 L24.697645,7.7623349 C24.6992387,6.40668614 25.844855,5.30800704 27.2587469,5.30596962 L35.741567,5.30571496 Z" id="Path"></path>
            <path d="M6.25932654,20.3057711 L14.741567,20.3057711 C14.644876,19.6565869 14.0652616,19.1742194 13.3809872,19.1732007 L9.68733958,19.1732007 C9.38265687,19.1732007 9.09178709,19.0499346 8.88592035,18.8342191 L7.54579438,17.4286297 C7.28520696,17.1558653 6.91703753,17.0005094 6.53133625,17 L2.11622546,17 C1.35757336,17.0007641 0.742629523,17.5903527 0.741566985,18.3177242 L0.741566985,30.6825305 C0.742629523,31.409902 1.35757336,31.9994907 2.11622546,32 L2.32315474,32 C3.08207245,31.9994907 3.69648501,31.4101568 3.69781323,30.6827853 L3.69781323,22.7626874 C3.6988757,21.4065063 4.84508853,20.3075539 6.25932654,20.3057711 Z" id="Path"></path>
            <path d="M6.42077786,22 C5.70305467,22.0007239 5.12153808,22.5595367 5.12053287,23.2486427 L5.12053287,30.7520811 C5.12103544,31.1943539 4.98935234,31.6274581 4.74156698,32 L15.4415732,32 C16.1590451,31.9992761 16.7408131,31.4411871 16.741567,30.7520811 L16.741567,23.2486427 C16.7410643,22.5595367 16.1592964,22.0007239 15.4415732,22 L6.42077786,22 Z" id="Path"></path>
        </g>
    </g>
</svg>