<?xml version="1.0" encoding="UTF-8"?>
<svg width="38px" height="35px" viewBox="0 0 38 35" version="1.1" xmlns="http://www.w3.org/2000/svg" xmlns:xlink="http://www.w3.org/1999/xlink">
    <!-- Generator: Sketch 52.2 (67145) - http://www.bohemiancoding.com/sketch -->
    <title>upload</title>
    <desc>Created with Sketch.</desc>
    <g id="Page-1" stroke="none" stroke-width="1" fill="none" fill-rule="evenodd">
        <g id="Volume-Dashboard_All-Copy-22" transform="translate(-717.000000, -397.000000)" fill="#0066A4">
            <g id="upload" transform="translate(717.000000, 397.000000)">
                <path d="M36.9112903,17.1594331 C36.3064516,17.1594331 35.8225806,17.6377325 35.8225806,18.2356067 L35.8225806,28.0248007 C35.8225806,30.6873339 33.6290323,32.8476528 30.9435484,32.8476528 L7.05645161,32.8476528 C4.36290323,32.8476528 2.17741935,30.6793623 2.17741935,28.0248007 L2.17741935,18.0761736 C2.17741935,17.4782994 1.69354839,17 1.08870968,17 C0.483870968,17 0,17.4782994 0,18.0761736 L0,28.0248007 C0,31.8751107 3.16935484,35 7.05645161,35 L30.9435484,35 C34.8387097,35 38,31.8671391 38,28.0248007 L38,18.2356067 C38,17.6457042 37.516129,17.1594331 36.9112903,17.1594331 Z" id="Path"></path>
                <path d="M12.8514228,8.81649175 L17.9121128,3.73223388 L17.9121128,25.9070465 C17.9121128,26.5142429 18.3956182,27 19,27 C19.6043818,27 20.0878872,26.5142429 20.0878872,25.9070465 L20.0878872,3.73223388 L25.1485772,8.81649175 C25.3580962,9.02698651 25.640141,9.14032984 25.9141274,9.14032984 C26.1961722,9.14032984 26.4701587,9.03508246 26.6796777,8.81649175 C27.1067741,8.3874063 27.1067741,7.69925037 26.6796777,7.27016492 L19.7655502,0.323838081 C19.5640896,0.12143928 19.2820448,0 19,0 C18.7098968,0 18.4359104,0.113343328 18.2344498,0.323838081 L11.3203223,7.27016492 C10.8932259,7.69925037 10.8932259,8.3874063 11.3203223,8.81649175 C11.7393604,9.23748126 12.4323848,9.23748126 12.8514228,8.81649175 Z" id="Path"></path>
            </g>
        </g>
    </g>
</svg>