<?xml version="1.0" encoding="UTF-8"?>
<svg width="88px" height="88px" viewBox="0 0 88 88" version="1.1" xmlns="http://www.w3.org/2000/svg" xmlns:xlink="http://www.w3.org/1999/xlink">
    <!-- Generator: Sketch 49.1 (51147) - http://www.bohemiancoding.com/sketch -->
    <title>Group</title>
    <desc>Created with Sketch.</desc>
    <defs></defs>
    <g id="Admin" stroke="none" stroke-width="1" fill="none" fill-rule="evenodd">
        <g id="Register-Success" transform="translate(-676.000000, -256.000000)">
            <g id="Group-4" transform="translate(425.000000, 134.000000)">
                <g id="Group-3">
                    <g id="Group" transform="translate(253.000000, 124.000000)">
                        <g id="like" transform="translate(22.285714, 23.142857)" fill="#21A433" fill-rule="nonzero">
                            <circle id="Oval" cx="7.51879699" cy="31.1004159" r="1.31978883"></circle>
                            <path d="M39.8483443,15.5844505 C39.8483443,13.3006879 37.9907855,11.4431291 35.7073748,11.4431291 L26.7208447,11.4431291 C27.4791073,10.025148 28.4645497,7.9550152 29.2743721,5.49052952 C29.8929131,3.60921453 28.8536234,1.56424572 26.9584067,0.932506799 L26.8771077,0.905407135 C25.1402656,0.325931851 23.2295633,1.14666453 22.4325868,2.81382179 C21.2673012,5.25296753 18.6731243,9.57800352 14.2880819,11.4433051 L13.4270517,11.4433051 C12.6675572,10.5794593 11.5557671,10.0327148 10.3178052,10.0327148 L4.67579587,10.0327148 C2.39256119,10.0327148 0.5350024,11.8902736 0.5350024,14.1735082 L0.5350024,33.9210686 C0.5350024,36.2043033 2.39256119,38.0618621 4.67579587,38.0618621 L10.3178052,38.0618621 C11.5557671,38.0618621 12.6675572,37.5151176 13.4270517,36.6512718 L31.4759558,36.6512718 C33.7591905,36.6512718 35.6167493,34.793713 35.6167493,32.5104783 C35.6167493,31.7418333 35.406287,31.0214046 35.0399136,30.4040953 C36.2308911,29.6760998 37.0271637,28.3635258 37.0271637,26.868469 C37.0271637,26.099824 36.8167013,25.3793953 36.4503279,24.7620861 C37.6413054,24.0340905 38.437578,22.7215166 38.437578,21.2264598 C38.437578,20.4578147 38.2271157,19.737386 37.8607423,19.1200768 C39.0518957,18.3920813 39.8483443,17.0793313 39.8483443,15.5844505 Z M35.7073748,17.0851384 L31.4757799,17.0851384 C30.7469045,17.0851384 30.155991,17.6760518 30.155991,18.4049272 C30.155991,19.1338026 30.7469045,19.724716 31.4757799,19.724716 L34.2967845,19.724716 C35.124732,19.724716 35.7981763,20.3983363 35.7981763,21.2261078 C35.7981763,22.0538794 35.1245561,22.7274996 34.2967845,22.7274996 L30.0651896,22.7274996 C29.3363142,22.7274996 28.7454007,23.3184131 28.7454007,24.0472884 C28.7454007,24.7761638 29.3363142,25.3670773 30.0651896,25.3670773 L32.8861942,25.3670773 C33.7141417,25.3670773 34.387586,26.0406975 34.387586,26.868469 C34.387586,27.6962406 33.7139658,28.3698608 32.8861942,28.3698608 L28.6547752,28.3698608 C27.9258999,28.3698608 27.3349864,28.9607743 27.3349864,29.6896497 C27.3349864,30.418525 27.9258999,31.0094385 28.6547752,31.0094385 L31.4757799,31.0094385 C32.3037274,31.0094385 32.9771717,31.6830587 32.9771717,32.5108303 C32.9771717,33.3386018 32.3035514,34.012222 31.4757799,34.012222 L14.4585986,34.012222 L14.4585986,21.2266357 C14.4585986,20.4977604 13.8676852,19.9068469 13.1388098,19.9068469 C12.4099344,19.9068469 11.819021,20.4977604 11.819021,21.2266357 L11.819021,33.9214206 C11.819021,34.7493681 11.1454007,35.4228124 10.3176292,35.4228124 L4.6756199,35.4228124 C3.84767237,35.4228124 3.17422812,34.7491921 3.17422812,33.9214206 L3.17422812,14.1733323 C3.17422812,13.3453847 3.84784834,12.6719405 4.6756199,12.6719405 L10.3176292,12.6719405 C11.1455767,12.6719405 11.819021,13.3455607 11.819021,14.1733323 L11.819021,15.5837466 C11.819021,16.312622 12.4099344,16.9035354 13.1388098,16.9035354 C13.8676852,16.9035354 14.4585986,16.312622 14.4585986,15.5837466 L14.4585986,14.0825308 L14.5494001,14.0825308 C14.7172772,14.0825308 14.8835706,14.0505039 15.0396577,13.9880339 C20.3960646,11.8454007 23.4630779,6.78005119 24.8141897,3.95147976 C25.0378499,3.48321869 25.5662934,3.25075988 26.0419453,3.40895857 L26.1234203,3.4362342 C26.6442969,3.60974244 26.9330667,4.16159015 26.7671253,4.66645337 C25.3632219,8.93799392 23.3450008,12.0013118 23.325292,12.0308751 C23.0551752,12.4357863 23.0301872,12.956487 23.2596545,13.3856823 C23.4892977,13.8147016 23.9366181,14.0827068 24.4233563,14.0827068 L35.7077268,14.0827068 C36.5356743,14.0827068 37.2091185,14.756327 37.2091185,15.5840985 C37.2091185,16.4118701 36.5353223,17.0851384 35.7073748,17.0851384 Z" id="Shape"></path>
                        </g>
                        <circle id="Oval-2" stroke="#39B54A" stroke-width="3" cx="42" cy="42" r="42"></circle>
                    </g>
                </g>
            </g>
        </g>
    </g>
</svg>