<?xml version="1.0" encoding="UTF-8"?>
<svg width="10px" height="16px" viewBox="0 0 10 16" version="1.1" xmlns="http://www.w3.org/2000/svg" xmlns:xlink="http://www.w3.org/1999/xlink">
    <!-- Generator: Sketch 52.2 (67145) - http://www.bohemiancoding.com/sketch -->
    <title>hourglass</title>
    <desc>Created with Sketch.</desc>
    <g id="Page-1" stroke="none" stroke-width="1" fill="none" fill-rule="evenodd">
        <g id="Volume-Dashboard_All-Copy-28" transform="translate(-1012.000000, -243.000000)" fill="#0066A4">
            <g id="hourglass" transform="translate(1012.000000, 243.000000)">
                <g id="Group-15">
                    <path d="M9.23353434,14.3750982 L9.23079929,14.3750982 L9.23079929,12.0938103 C9.23079929,11.3221216 8.72338209,10.3588124 8.08650578,9.90090398 L5.64097889,8.14901706 L5.64097889,7.85110993 L8.08637554,6.09922301 C8.72338209,5.64131461 9.23066905,4.67800538 9.23066905,3.90631672 L9.23066905,1.62502877 L9.2334041,1.62502877 C9.65759758,1.62502877 9.99986976,1.28864515 9.99986976,0.875054564 L9.99986976,0.749974206 C9.99986976,0.336383622 9.65759758,0 9.2334041,0 L0.769721676,0 C0.345528191,0 4.62707399e-16,0.336383622 4.62707399e-16,0.749974206 L4.62707399e-16,0.874927579 C4.62707399e-16,1.28851816 0.345267709,1.62490178 0.769461195,1.62490178 L0.77297769,3.90618973 C0.77297769,4.67800538 1.27127805,5.64067969 1.90958701,6.0975722 L4.35902111,7.85237978 L4.35902111,8.14749323 L1.9076334,9.9024278 C1.26958492,10.3593203 0.769200714,11.3219946 0.769200714,12.0938103 L0.769200714,14.3750982 C0.345528191,14.3750982 0,14.7114818 0,15.1250724 L0,15.2500258 C0,15.6636164 0.345528191,16 0.769721676,16 L9.23353434,16 C9.65772782,16 10,15.6636164 10,15.2500258 L10,15.1250724 C10,14.7114818 9.65772782,14.3750982 9.23353434,14.3750982 Z M8.07686798,14.3752252 L8.07686798,12.4145747 C8.07686798,11.8447924 7.71011057,11.1334217 7.23942121,10.7953873 L5.15843763,9.29899444 C5.06818093,9.23385106 4.94536409,9.23372408 4.85497714,9.29861348 L2.76305336,10.7964031 C2.29184303,11.1339296 1.92300178,11.8446654 1.92300178,12.4145747 L1.92300178,14.3750982 L1.28195778,14.3752252 L1.28195778,12.0938103 C1.28195778,11.4849165 1.70927703,10.6659894 2.21265678,10.3054786 L4.76758573,8.47574981 C4.83335721,8.42863832 4.87164793,8.35384408 4.87164793,8.2742244 L4.87164793,7.72590259 C4.87164793,7.64628291 4.83426889,7.57148866 4.76862766,7.52437718 L2.21200557,5.69464837 C1.70849559,5.33413757 1.28195778,4.51521044 1.28195778,3.90631672 L1.28195778,1.62502877 L8.71791198,1.62502877 L8.71791198,3.90631672 C8.71791198,4.51546441 8.28499238,5.33540742 7.78200336,5.6969341 L5.23645173,7.52361527 C5.17094073,7.57072675 5.12809159,7.64526703 5.12809159,7.72475972 L5.12809159,8.27536726 C5.12809159,8.35473297 5.16677303,8.42940023 5.23228403,8.47651172 L7.7821336,10.3033199 C8.28486214,10.6648465 8.71791198,11.4847896 8.71791198,12.0939373 L8.71791198,14.3752252 L8.07686798,14.3752252 Z" id="Shape" fill-rule="nonzero"></path>
                    <path d="M7.13110053,5.28007766 C7.09942214,5.16788017 7.0095079,5.09229596 6.90827995,5.09229596 L3.09162893,5.09090909 C2.99028189,5.09090909 2.90048674,5.16677068 2.86880834,5.27882948 C2.83724904,5.39102697 2.87119018,5.51418071 2.95288709,5.58407877 L4.86585718,7.21974898 C4.907182,7.25511407 4.95589051,7.27272727 5.00459902,7.27272727 C5.05342662,7.27272727 5.10237331,7.25497538 5.14369813,7.21933292 L7.04749816,5.58504958 C7.12895688,5.51515152 7.16277893,5.39213647 7.13110053,5.28007766 Z" id="Path"></path>
                </g>
            </g>
        </g>
    </g>
</svg>