<?xml version="1.0" encoding="UTF-8"?>
<svg width="22px" height="18px" viewBox="0 0 22 18" version="1.1" xmlns="http://www.w3.org/2000/svg" xmlns:xlink="http://www.w3.org/1999/xlink">
    <!-- Generator: Sketch 52.5 (67469) - http://www.bohemiancoding.com/sketch -->
    <title>001-error</title>
    <desc>Created with Sketch.</desc>
    <g id="Page-1" stroke="none" stroke-width="1" fill="none" fill-rule="evenodd">
        <g id="Volume-Dashboard_All-Copy-14" transform="translate(-135.000000, -357.000000)" fill="#0066A4">
            <g id="Group-25" transform="translate(128.000000, 349.000000)">
                <g id="001-error" transform="translate(7.000000, 8.000000)">
                    <path d="M12.2747204,1.59163507 L6.67130332,1.59163507 C6.48618483,1.59163507 6.33617062,1.74169194 6.33617062,1.92676777 C6.33617062,2.1118436 6.48618483,2.26190047 6.67130332,2.26190047 L12.2747204,2.26190047 C12.4598389,2.26190047 12.6098531,2.1118436 12.6098531,1.92676777 C12.6098531,1.74169194 12.4598389,1.59163507 12.2747204,1.59163507 Z" id="Path"></path>
                    <circle id="Oval" cx="2.01625592" cy="1.92668246" r="1"></circle>
                    <circle id="Oval" cx="3.56800948" cy="1.92668246" r="1"></circle>
                    <circle id="Oval" cx="5.03317536" cy="1.92668246" r="1"></circle>
                    <circle id="Oval" cx="17.5764455" cy="1.92668246" r="1"></circle>
                    <path d="M20.0546019,5.33845024 L19.5494929,5.33845024 L19.5494929,1.64768246 C19.5494929,0.761161137 18.8282133,0.0399241706 17.9416919,0.0399241706 L1.60780095,0.0399241706 C0.721279621,0.0399241706 0,0.761161137 0,1.64768246 L0,9.2890237 L0,11.8212227 L0,14.6195403 C0,15.5060616 0.721279621,16.2272986 1.60780095,16.2272986 L4.23968246,16.2272986 L6.88764455,16.2272986 L9.44095735,16.2272986 C9.46838389,17.1873555 10.2573555,17.9600332 11.2238957,17.9600332 L20.0546019,17.9600332 C21.0384171,17.9600332 21.8388626,17.1595877 21.8388626,16.1757725 L21.8388626,7.1227109 C21.8388626,6.13885308 21.0384171,5.33845024 20.0546019,5.33845024 Z M4.13274882,15.5570332 L1.60780095,15.5570332 C1.09083412,15.5570758 0.670265403,15.1365071 0.670265403,14.6195829 L0.670265403,11.9357488 C1.14880095,11.3337725 1.88129858,10.9767156 2.65167299,10.9767156 C4.04692891,10.9767156 5.18199526,12.1118246 5.18199526,13.5070379 C5.18199526,14.3221991 4.79107109,15.0808436 4.13274882,15.5570332 Z M6.95870616,14.7331706 C6.87821801,15.0166919 6.76863981,15.2932607 6.63240284,15.5571611 L5.10982464,15.5571611 L5.10982464,15.5570758 C5.58418009,14.9889668 5.85226066,14.2671754 5.85226066,13.5070806 C5.85226066,11.7422701 4.41648341,10.3064929 2.65167299,10.3064929 C1.92753555,10.3064929 1.22941706,10.5552512 0.670265403,10.9954408 L0.670265403,9.49201422 C0.915312796,9.37066351 1.17034123,9.27226066 1.43065877,9.19863981 C1.56011374,9.16204265 1.65514692,9.05156872 1.67195261,8.91806161 L1.74582938,8.33195261 C1.76165403,8.20616588 1.86922749,8.11130332 1.99603791,8.11130332 L3.3130237,8.11130332 C3.43996209,8.11130332 3.5475782,8.20629384 3.56327488,8.33229384 L3.63663981,8.91921327 C3.65336019,9.05267773 3.74822275,9.16327962 3.87763507,9.20004739 C4.20811848,9.29392891 4.52909005,9.42718009 4.83154976,9.59617536 C4.94901896,9.66181991 5.09425592,9.65085782 5.20050711,9.56836493 L5.6684218,9.20520853 C5.76853081,9.12753555 5.91172038,9.13645024 6.0014218,9.226109 L6.9326872,10.1573744 C7.02243128,10.2471185 7.03134597,10.3903934 6.95341706,10.4905877 L6.59030332,10.9573934 C6.50759716,11.0636872 6.49663507,11.2090948 6.56227962,11.3266493 C6.73217062,11.6306445 6.8659763,11.9534502 6.96007109,12.286109 C6.99666825,12.415564 7.10718483,12.5105972 7.24064929,12.5274028 L7.82667299,12.6012796 C7.95250237,12.6171469 8.04740758,12.724763 8.04740758,12.8515735 L8.04740758,14.1685592 C8.04740758,14.2954976 7.95241706,14.4031137 7.82645972,14.4188531 L7.23954028,14.4921754 C7.10607583,14.5088531 6.99543128,14.6037583 6.95870616,14.7331706 Z M21.1685972,16.1758152 C21.1685972,16.7900758 20.6688626,17.2898104 20.0546019,17.2898104 L11.2238957,17.2898104 C10.6096351,17.2898104 10.1099005,16.7900758 10.1099005,16.1758152 L10.1099005,14.813872 C10.1099005,14.6287962 9.95988626,14.4787393 9.77476777,14.4787393 C9.58964929,14.4787393 9.43963507,14.6287962 9.43963507,14.813872 L9.43963507,15.5570332 L7.37326066,15.5570332 C7.43421327,15.417 7.48953555,15.2747488 7.53756398,15.1302796 L7.90963507,15.0837867 C8.37029858,15.0262038 8.71771564,14.6326777 8.71771564,14.1684313 L8.71771564,12.8514455 C8.71771564,12.3876682 8.37072512,11.9941848 7.91061611,11.9361754 C7.91061611,11.9361754 7.91061611,11.9361754 7.91057346,11.9361754 L7.53935545,11.8893839 C7.461,11.6526967 7.36502844,11.4212559 7.25254976,11.1976209 L7.48249763,10.9019858 C7.76759716,10.5355024 7.73492417,10.0115403 7.40665877,9.68327488 L6.47539336,8.75200948 C6.14742654,8.42408531 5.62380569,8.39124171 5.25749289,8.67557346 L4.96066351,8.90594787 C4.73886256,8.79440758 4.50946919,8.69911848 4.27491469,8.62114692 L4.2284218,8.24911848 C4.17092417,7.78841232 3.7773981,7.44095261 3.31306635,7.44095261 L1.99608057,7.44095261 C1.53230332,7.44095261 1.13881991,7.78794313 1.08085308,8.24809479 L1.03406161,8.6193981 C0.911345972,8.66009005 0.789995261,8.70585782 0.670265403,8.75593365 L0.670265403,3.77048815 L2.41882464,3.77048815 C2.60394313,3.77048815 2.75395735,3.62043128 2.75395735,3.43535545 C2.75395735,3.25027962 2.60394313,3.10022275 2.41882464,3.10022275 L0.670265403,3.10022275 L0.670265403,1.64768246 C0.670265403,1.13075829 1.09083412,0.710189573 1.60780095,0.710189573 L17.9417346,0.710189573 C18.4587014,0.710189573 18.8792701,1.13075829 18.8792701,1.64768246 L18.8792701,3.10022275 L4.35885782,3.10022275 C4.17373934,3.10022275 4.02372512,3.25027962 4.02372512,3.43535545 C4.02372512,3.62043128 4.17373934,3.77048815 4.35885782,3.77048815 L18.8792275,3.77048815 L18.8792275,5.33840758 L11.2238957,5.33840758 C10.2400806,5.33840758 9.43963507,6.13885308 9.43963507,7.12266825 L9.43963507,12.9370948 C9.43963507,13.1221706 9.58964929,13.2722275 9.77476777,13.2722275 C9.95988626,13.2722275 10.1099005,13.1221706 10.1099005,12.9370948 L10.1099005,7.1227109 C10.1099005,6.50845024 10.6096351,6.00871564 11.2238957,6.00871564 L20.0546019,6.00871564 C20.6688626,6.00871564 21.1685972,6.50845024 21.1685972,7.1227109 L21.1685972,16.1758152 Z" id="Shape" fill-rule="nonzero"></path>
                    <path d="M19.4434123,14.0212749 L16.3400758,8.49693839 C16.2212417,8.28537441 15.9971374,8.15425592 15.7546493,8.15425592 C15.7536682,8.15425592 15.7527299,8.15425592 15.7517488,8.15429858 C15.508109,8.15532227 15.2837915,8.28853081 15.1663223,8.50197156 L12.12509,14.0263507 C12.0094123,14.2365071 12.0132085,14.4853081 12.1352417,14.6918389 C12.2573175,14.8983697 12.4734882,15.0216825 12.7133744,15.0216825 L18.8579431,15.0216825 C19.0990664,15.0216825 19.3157488,14.8974313 19.4375261,14.6893223 C19.5593033,14.4812559 19.5614787,14.2314313 19.4434123,14.0212749 Z M12.7134171,14.3513744 L12.7122654,14.3495403 L15.755673,8.82511848 L18.8579858,14.3513744 L12.7134171,14.3513744 Z" id="Shape" fill-rule="nonzero"></path>
                    <path d="M16.0516919,13.1211043 C15.9862607,13.0514929 15.9086303,13.0166445 15.8186303,13.0166445 C15.7120379,13.0166445 15.6231469,13.0507251 15.5520853,13.1188436 C15.4810664,13.1869621 15.4455355,13.2695403 15.4455355,13.3664502 C15.4455355,13.4603744 15.4818768,13.5421422 15.5546019,13.6117536 C15.6272844,13.6814502 15.7153223,13.7162559 15.8186303,13.7162559 C15.908673,13.7162559 15.9863033,13.6814929 16.0516919,13.6117536 C16.1169526,13.5421422 16.1497109,13.4603744 16.1497109,13.3664502 C16.1497109,13.2726114 16.1169953,13.1908436 16.0516919,13.1211043 Z" id="Path"></path>
                    <path d="M16.0377867,10.4431137 C15.978327,10.3931659 15.9035972,10.3681706 15.8137678,10.3681706 C15.7101185,10.3681706 15.6250664,10.3931659 15.5586967,10.4431137 C15.4922844,10.4930616 15.4591848,10.5604976 15.4591848,10.6452512 C15.4591848,10.8269573 15.469763,11.137436 15.4909621,11.5765592 C15.5121185,12.0157251 15.522782,12.3246682 15.522782,12.5033033 C15.522782,12.6365972 15.6197346,12.7032227 15.8137678,12.7032227 C15.8827393,12.7032227 15.9477014,12.6858199 16.0085687,12.6509716 C16.0693081,12.6162085 16.099763,12.5669431 16.099763,12.503346 C16.099763,12.3247109 16.1042844,12.0157678 16.1133697,11.5766019 C16.122455,11.1375213 16.1269763,10.827 16.1269763,10.6452938 C16.1269763,10.5605403 16.0972464,10.4931043 16.0377867,10.4431137 Z" id="Path"></path>
                </g>
            </g>
        </g>
    </g>
</svg>