<?xml version="1.0" encoding="UTF-8"?>
<svg width="14px" height="16px" viewBox="0 0 14 16" version="1.1" xmlns="http://www.w3.org/2000/svg" xmlns:xlink="http://www.w3.org/1999/xlink">
    <!-- Generator: Sketch 52.5 (67469) - http://www.bohemiancoding.com/sketch -->
    <title>filter (4)</title>
    <desc>Created with Sketch.</desc>
    <g id="Page-1" stroke="none" stroke-width="1" fill="none" fill-rule="evenodd" opacity="0.202915737">
        <g id="Volume-Dashboard_All-Copy-14" transform="translate(-140.000000, -581.000000)" fill="#000000">
            <g id="filter-(4)" transform="translate(140.000000, 581.000000)">
                <path d="M12.8803711,4.65625 L10.1589356,4.65625 L10.1589356,3.05334472 C10.1644287,3.04797363 10.1700439,3.04235841 10.1759033,3.03662109 C10.2819824,2.93164062 10.4279785,2.78491212 10.6098633,2.600708 C10.7762451,2.43225097 10.9429932,2.26232909 11.0617676,2.14099122 C11.1618652,2.17114256 11.2678223,2.1875 11.3776856,2.1875 C11.9816894,2.1875 12.4714356,1.69775391 12.4714356,1.09375 C12.4714356,0.489746094 11.9816894,0 11.3776856,0 C10.7735596,0 10.2839356,0.489746094 10.2839356,1.09375 C10.2839356,1.11169434 10.2844238,1.12951659 10.2852783,1.14733887 C9.81616212,1.62744141 9.30358887,2.14599609 9.16503906,2.27661131 C9.08239747,2.33703613 9.01379394,2.41821288 8.96801756,2.51586913 C8.92614747,2.60522462 8.90698244,2.70031738 8.90893556,2.79406738 L8.90893556,4.65625 L7.37768556,4.65625 L7.37768556,1.99108887 C7.66088869,1.79345703 7.84643556,1.46533203 7.84643556,1.09375 C7.84643556,0.489746094 7.35668944,0 6.75268556,0 C6.14855956,0 5.65893556,0.489746094 5.65893556,1.09375 C5.65893556,1.46533203 5.84436034,1.79345703 6.12768556,1.99108887 L6.12768556,4.65625 L4.56518556,4.65625 L4.56518556,2.625 C4.56518556,2.4592285 4.49926756,2.30029297 4.38208006,2.18310547 L3.34509278,1.14611816 C3.34594725,1.12866212 3.34643556,1.11132812 3.34643556,1.09375 C3.34643556,0.489746094 2.85668944,0 2.25268556,0 C1.64855956,0 1.15893556,0.489746094 1.15893556,1.09375 C1.15893556,1.69775391 1.64855956,2.1875 2.25268556,2.1875 C2.36352538,2.1875 2.47058106,2.17089844 2.57141113,2.14013672 L3.31518556,2.88391113 L3.31518556,4.65625 L0.625,4.65625 C0.279785156,4.65625 0,4.93603516 0,5.28125 C0,7.37121581 0.696655281,9.1241455 2.07080078,10.491333 C3.06542969,11.4810791 4.19189453,12.0327148 4.84643556,12.3278809 L4.84643556,14.1026611 C4.84643556,14.3411865 4.98217775,14.5588379 5.196167,14.6638184 L7.789917,15.9361572 C7.87695312,15.9788818 7.97119141,16 8.06518556,16 C8.18029784,16 8.29492188,15.9682617 8.39575194,15.9053955 C8.57885744,15.7912597 8.69018556,15.5906982 8.69018556,15.375 L8.69018556,14.5026856 C8.69018556,14.1574707 8.41040038,13.8776856 8.06518556,13.8776856 C7.76257325,13.8776856 7.51013184,14.0927734 7.45251466,14.378418 L6.09643556,13.7131348 L6.09643556,11.9226074 C6.09643556,11.6784668 5.95422363,11.456665 5.73229981,11.3547363 C5.6779785,11.3297119 5.61474609,11.3016358 5.54370119,11.2701416 C4.4313965,10.7770996 1.57397462,9.51086425 1.27539062,5.90625 L12.2259522,5.90625 C12.1831055,6.35437013 12.0949707,6.77038575 11.9719238,7.15625 L3.81518556,7.15625 C3.46997069,7.15625 3.19018556,7.43603516 3.19018556,7.78125 C3.19018556,8.12646484 3.46997069,8.40625 3.81518556,8.40625 L11.4030762,8.40625 C10.3276367,10.1818848 8.53271484,11.0672607 7.82592775,11.3601074 C7.50708006,11.4923096 7.35559081,11.8577881 7.48779297,12.1767578 C7.61987306,12.4956055 7.98547363,12.6469727 8.30444337,12.5148926 C8.94384766,12.2498779 10.1837158,11.6400147 11.3020019,10.5327148 C11.9567871,9.88427734 12.4744873,9.15673828 12.8405762,8.37023925 C13.2817383,7.4227295 13.5053711,6.38342284 13.5053711,5.28125 C13.5053711,4.93603516 13.2254639,4.65625 12.8803711,4.65625 Z" id="Path"></path>
            </g>
        </g>
    </g>
</svg>