<?xml version="1.0" encoding="UTF-8"?>
<svg width="19px" height="16px" viewBox="0 0 19 16" version="1.1" xmlns="http://www.w3.org/2000/svg" xmlns:xlink="http://www.w3.org/1999/xlink">
    <!-- Generator: Sketch 52.5 (67469) - http://www.bohemiancoding.com/sketch -->
    <title>003-danger</title>
    <desc>Created with Sketch.</desc>
    <g id="Page-1" stroke="none" stroke-width="1" fill="none" fill-rule="evenodd" opacity="0.202915737">
        <g id="Volume-Dashboard_All-Copy-14" transform="translate(-139.000000, -537.000000)" fill="#000000">
            <g id="003-danger" transform="translate(139.000000, 537.000000)">
                <path d="M18.2951312,13.4441267 L10.6928145,0.836271493 C10.3933032,0.33958371 9.84695023,0.0310226244 9.26693213,0.0310226244 C8.68691403,0.0310226244 8.14056109,0.33958371 7.84101357,0.836307692 L0.238733032,13.4441267 C-0.0708054299,13.9575023 -0.0799638009,14.6006878 0.21480543,15.1226787 C0.509647059,15.6446697 1.06515837,15.9689412 1.66461538,15.9689412 L16.8692489,15.9689412 C17.4687059,15.9689412 18.0242534,15.6446697 18.319095,15.1226425 C18.6138643,14.6006154 18.6047059,13.9574299 18.2951312,13.4441267 Z M17.2683801,14.5293032 C17.1872217,14.6729774 17.0342805,14.7622805 16.8692489,14.7622805 L1.66461538,14.7622805 C1.49958371,14.7622805 1.34664253,14.6730136 1.26552036,14.5293394 C1.18436199,14.385629 1.18689593,14.208543 1.2720724,14.0672579 L8.87442534,1.45940271 C8.95688688,1.32267873 9.10729412,1.23771946 9.26696833,1.23771946 C9.42660633,1.23771946 9.57701357,1.32267873 9.65947511,1.45940271 L17.2617557,14.0672579 C17.3470045,14.2085792 17.3495385,14.385629 17.2683801,14.5293032 Z" id="Shape" fill-rule="nonzero"></path>
                <path d="M9.27254299,4.99565611 C8.81353846,4.99565611 8.45531222,5.24195475 8.45531222,5.67858824 C8.45531222,7.01078733 8.6120181,8.92514027 8.6120181,10.2573756 C8.6120543,10.6044163 8.91435294,10.7499367 9.27257919,10.7499367 C9.54124887,10.7499367 9.92188235,10.6044163 9.92188235,10.2573756 C9.92188235,8.92517647 10.0785882,7.01082353 10.0785882,5.67858824 C10.0785882,5.24199095 9.70917647,4.99565611 9.27254299,4.99565611 Z" id="Path"></path>
                <path d="M9.2838009,11.5223891 C8.79123982,11.5223891 8.42175566,11.9142081 8.42175566,12.3844344 C8.42175566,12.8434389 8.79120362,13.2464796 9.2838009,13.2464796 C9.74280543,13.2464796 10.1346606,12.8434389 10.1346606,12.3844344 C10.1346606,11.9142081 9.74276923,11.5223891 9.2838009,11.5223891 Z" id="Path"></path>
            </g>
        </g>
    </g>
</svg>