<?xml version="1.0" encoding="UTF-8"?>
<svg width="16px" height="16px" viewBox="0 0 16 16" version="1.1" xmlns="http://www.w3.org/2000/svg" xmlns:xlink="http://www.w3.org/1999/xlink">
    <!-- Generator: Sketch 52.5 (67469) - http://www.bohemiancoding.com/sketch -->
    <title>csv-file</title>
    <desc>Created with Sketch.</desc>
    <g id="Page-1" stroke="none" stroke-width="1" fill="none" fill-rule="evenodd">
        <g id="Volume-Dashboard_All-Copy-14" transform="translate(-488.000000, -299.000000)" fill="#0066A4">
            <g id="csv-file" transform="translate(488.000000, 299.000000)">
                <path d="M11.021,6.958 L11.021,4.155 C11.021,3.586 10.559,3.125 9.991,3.125 L1.306,3.125 C0.737,3.125 0.276,3.586 0.276,4.155 L0.276,6.958 C0.276,7.527 0.737,7.988 1.306,7.988 L9.99,7.988 C10.559,7.988 11.021,7.527 11.021,6.958 Z M3.198,6.397 C3.42,6.397 3.593,6.36 3.735,6.304 L3.846,6.996 C3.679,7.07 3.365,7.132 3.006,7.132 C2.03,7.132 1.406,6.539 1.406,5.588 C1.406,4.705 2.011,3.982 3.135,3.982 C3.382,3.982 3.654,4.025 3.852,4.1 L3.704,4.797 C3.593,4.747 3.426,4.704 3.179,4.704 C2.685,4.704 2.364,5.056 2.37,5.55 C2.37,6.106 2.741,6.397 3.198,6.397 Z M5.169,7.132 C4.774,7.132 4.422,7.046 4.193,6.922 L4.36,6.249 C4.533,6.353 4.891,6.478 5.169,6.478 C5.453,6.478 5.571,6.379 5.571,6.224 C5.571,6.07 5.478,5.996 5.126,5.879 C4.503,5.669 4.262,5.329 4.268,4.97 C4.268,4.408 4.749,3.982 5.497,3.982 C5.85,3.982 6.164,4.063 6.35,4.155 L6.183,4.804 C6.046,4.729 5.787,4.631 5.528,4.631 C5.299,4.631 5.17,4.724 5.17,4.878 C5.17,5.02 5.288,5.094 5.658,5.224 C6.233,5.421 6.473,5.712 6.479,6.156 C6.479,6.718 6.034,7.132 5.169,7.132 Z M8.766,7.07 L7.827,7.07 L6.727,4.049 L7.746,4.049 L8.154,5.451 C8.228,5.704 8.284,5.946 8.327,6.186 L8.346,6.186 C8.396,5.939 8.445,5.71 8.513,5.451 L8.902,4.049 L9.89,4.049 L8.766,7.07 Z" id="Shape" fill-rule="nonzero"></path>
                <path d="M15.27,0 L4.058,0 C3.822,0 3.629,0.192 3.629,0.429 L3.629,2.479 L4.917,2.479 L4.917,1.075 L14.347,1.075 L14.347,11.164 L11.789,11.162 C11.662,11.162 11.542,11.213 11.452,11.303 C11.363,11.391 11.313,11.512 11.313,11.639 L11.322,14.84 L4.917,14.84 L4.917,8.615 L3.629,8.615 L3.629,15.547 C3.629,15.783 3.821,15.975 4.058,15.975 L12.42,15.975 C12.543,15.975 12.658,15.922 12.74,15.832 L15.59,12.641 C15.66,12.563 15.698,12.461 15.698,12.356 L15.698,0.429 C15.699,0.192 15.506,0 15.27,0 Z" id="Path"></path>
            </g>
        </g>
    </g>
</svg>