<?xml version="1.0" encoding="UTF-8"?>
<svg width="24px" height="24px" viewBox="0 0 24 24" version="1.1" xmlns="http://www.w3.org/2000/svg" xmlns:xlink="http://www.w3.org/1999/xlink">
    <!-- Generator: Sketch 45.2 (43514) - http://www.bohemiancoding.com/sketch -->
    <title>Artboard 2</title>
    <desc>Created with Sketch.</desc>
    <defs></defs>
    <g id="Page-1" stroke="none" stroke-width="1" fill="none" fill-rule="evenodd">
        <g id="Artboard-2" fill-rule="nonzero" fill="#F57957">
            <g id="001-arrows" transform="translate(5.000000, 3.000000)">
                <path d="M13.9861598,6.28424593 C13.9554414,6.24231747 13.9219568,6.20246359 13.8859246,6.16501186 L8.06252669,0.341613987 C7.60793769,-0.113520953 6.87051354,-0.113921311 6.41545139,0.340667685 C6.41516022,0.340958855 6.41483266,0.341286421 6.41454149,0.341577591 L0.591143617,6.16497546 C0.136954979,6.62043797 0.137974074,7.35786212 0.59343658,7.81208715 C0.629286873,7.84782826 0.667430129,7.88120361 0.707611574,7.91199482 C1.19462962,8.23850546 1.84594027,8.16724163 2.25081201,7.74311629 L5.47697443,4.52860066 C5.64803674,4.35772033 5.79147431,4.16125344 5.90208248,3.94626087 L6.05931422,3.596857 L6.05931422,15.0340104 C6.0372217,15.6289797 6.45283033,16.1509745 7.03764506,16.2627474 C7.67257741,16.3657123 8.27078596,15.9344897 8.37375091,15.299521 C8.38456059,15.2329159 8.38954688,15.16551 8.38867337,15.0980678 L8.38867337,3.61432719 L8.50514132,3.8647333 C8.62099054,4.10949799 8.77865904,4.33217017 8.97101315,4.52277726 L12.1913522,7.74311629 C12.5962239,8.16724163 13.2475346,8.23850546 13.7345526,7.91199482 C14.2535266,7.53198172 14.3661729,6.80321987 13.9861598,6.28424593 Z" id="Shape"></path>
            </g>
        </g>
    </g>
</svg>