<?xml version="1.0" encoding="UTF-8"?>
<svg width="15px" height="18px" viewBox="0 0 15 18" version="1.1" xmlns="http://www.w3.org/2000/svg" xmlns:xlink="http://www.w3.org/1999/xlink">
    <!-- Generator: Sketch 52.5 (67469) - http://www.bohemiancoding.com/sketch -->
    <title>006-repair</title>
    <desc>Created with Sketch.</desc>
    <g id="Page-1" stroke="none" stroke-width="1" fill="none" fill-rule="evenodd">
        <g id="Volume-Dashboard_All-Copy-14" transform="translate(-137.000000, -449.000000)" fill="#0066A4">
            <g id="Group-23" transform="translate(128.000000, 443.000000)">
                <g id="006-repair" transform="translate(9.000000, 6.000000)">
                    <path d="M14.9937544,11.3357895 L14.9937544,11.3065614 C14.9937544,10.6604912 14.4681053,10.1348421 13.822,10.1348421 L10.4784561,10.1348421 L10.6958596,5.26782456 C10.7007368,5.15821053 10.6386316,5.05659649 10.538807,5.01101754 C9.66224561,4.61066667 9.09585965,3.73007018 9.09585965,2.76761404 C9.09585965,1.9414386 9.51063158,1.17884211 10.180807,0.72522807 L10.180807,2.38424561 C10.180807,2.76684211 10.4921053,3.07810526 10.8747018,3.07810526 L12.2482807,3.07810526 C12.6308772,3.07810526 12.9421754,2.76684211 12.9421754,2.38424561 L12.9421754,0.725263158 C13.6123509,1.17887719 14.0271228,1.94147368 14.0271228,2.76764912 C14.0271228,3.75463158 13.4408421,4.64421053 12.5335439,5.03396491 C12.4300702,5.07842105 12.3652281,5.18259649 12.3710175,5.29508772 L12.5602807,8.96684211 C12.5679298,9.11522807 12.6942456,9.22968421 12.8428772,9.2217193 C12.9912982,9.21407018 13.1054035,9.08754386 13.0977544,8.93912281 L12.9177895,5.44817544 C13.9245614,4.93884211 14.5652632,3.90645614 14.5652632,2.76761404 C14.5652632,1.58308772 13.8655088,0.505894737 12.7825614,0.0232982456 C12.6993333,-0.0137894737 12.6029825,-0.00624561404 12.5264912,0.0434035088 C12.4500702,0.0930175439 12.4039298,0.177964912 12.4039298,0.269087719 L12.4039298,2.38417544 C12.4039298,2.47003509 12.3340702,2.53985965 12.2482456,2.53985965 L10.8746667,2.53985965 C10.788807,2.53985965 10.7189825,2.47003509 10.7189825,2.38417544 L10.7189825,0.269157895 C10.7189825,0.178035088 10.6728421,0.0930877193 10.5964211,0.0434736842 C10.5199649,-0.0061754386 10.4235789,-0.0137192982 10.3403509,0.0233684211 C9.25740351,0.505929825 8.55764912,1.58315789 8.55764912,2.76768421 C8.55764912,3.87877193 9.17698246,4.90017544 10.1503158,5.41912281 L10.1410526,5.99831579 C9.95477193,5.85070175 9.71978947,5.76203509 9.46442105,5.7614386 C9.35175439,5.75926316 8.97729825,5.77887719 8.6825614,6.08673684 C8.43273684,6.3477193 8.39217544,6.65505263 8.39024561,6.81494737 C8.39,6.83652632 8.38596491,6.85922807 8.3782807,6.88245614 C8.19670175,7.43189474 7.95985965,7.95242105 7.67431579,8.42954386 C7.598,8.55705263 7.63950877,8.72231579 7.76701754,8.79863158 C7.8945614,8.87498246 8.05978947,8.8334386 8.13610526,8.70592982 C8.44189474,8.19491228 8.69533333,7.63824561 8.88926316,7.05140351 C8.9142807,6.97578947 8.9274386,6.89849123 8.92838596,6.82157895 C8.92936842,6.74087719 8.94922807,6.58645614 9.07129825,6.45894737 C9.2137193,6.31021053 9.39978947,6.29954386 9.44992982,6.29954386 C9.45498246,6.29954386 9.45821053,6.29964912 9.46185965,6.29964912 C9.76961404,6.29964912 10.02,6.55042105 10.02,6.85870175 C10.02,6.97870175 10.0208421,7.0897193 10.0216491,7.19470175 C10.0229474,7.36357895 10.0240702,7.50940351 10.0215088,7.65385965 C10.014,8.08122807 9.99494737,8.46147368 9.9765614,8.82919298 C9.95263158,9.30708772 9.92789474,9.80122807 9.92789474,10.404 C9.92789474,10.5526316 10.048386,10.6730877 10.1969825,10.6730877 L13.8218947,10.6730877 C14.1712281,10.6730877 14.4554386,10.9572982 14.4554386,11.3066316 L14.4554386,11.3358596 C14.4554386,11.685193 14.1712281,11.9694386 13.8218947,11.9694386 L13.0404912,11.9694386 C12.8918596,11.9694386 12.7714035,12.0898947 12.7714035,12.2385263 C12.7714035,12.3871579 12.8918947,12.507614 13.0404912,12.507614 L13.8218947,12.507614 C14.1712281,12.507614 14.4554386,12.7918596 14.4554386,13.141193 L14.4554386,13.1473333 C14.4554386,13.4966667 14.1712281,13.7808772 13.8218947,13.7808772 L13.0404912,13.7808772 C12.8918596,13.7808772 12.7714035,13.9013333 12.7714035,14.0499649 C12.7714035,14.1985965 12.8918947,14.3190526 13.0404912,14.3190526 L13.8218947,14.3190526 C14.1712281,14.3190526 14.4554386,14.6032982 14.4554386,14.9526316 L14.4554386,14.988 C14.4554386,15.3373333 14.1712281,15.6215789 13.8218947,15.6215789 L13.0404912,15.6215789 C12.8918596,15.6215789 12.7714035,15.7420351 12.7714035,15.8906667 C12.7714035,16.0392982 12.8918947,16.1597544 13.0404912,16.1597544 L13.8218947,16.1597544 C14.1712281,16.1597544 14.4554386,16.444 14.4554386,16.7933333 C14.4554386,17.1426667 14.1712281,17.4268772 13.8218947,17.4268772 L7.39950877,17.4268772 C6.7665614,17.4268772 6.16701754,17.1849474 5.71133333,16.7456491 L5.44126316,16.4852982 L5.44126316,11.3323158 C5.80891228,11.1279649 6.15807018,10.8920702 6.48091228,10.6294386 C6.67610526,10.4706316 6.86498246,10.2994035 7.04231579,10.1204561 C7.14691228,10.0148772 7.14614035,9.84452632 7.04059649,9.73989474 C6.93505263,9.63526316 6.76466667,9.63607018 6.66003509,9.74161404 C6.49617544,9.90694737 6.32164912,10.065193 6.14126316,10.2119649 C5.91294737,10.3976842 5.67010526,10.5686316 5.41642105,10.7235789 C5.32905263,10.3854737 5.0214386,10.1349474 4.65642105,10.1349474 L0.293017544,10.1349474 C0.144385965,10.1349474 0.0239298246,10.2554035 0.0239298246,10.4040351 L0.0239298246,17.6959298 C0.0239298246,17.8445614 0.144421053,17.9650175 0.293017544,17.9650175 L4.65638596,17.9650175 C5.07350877,17.9650175 5.41554386,17.6378947 5.43975439,17.2267719 C5.98224561,17.7038246 6.67280702,17.9650175 7.39950877,17.9650175 L13.822,17.9650175 C14.4681053,17.9650175 14.9937544,17.4393684 14.9937544,16.7932632 C14.9937544,16.4305263 14.8280702,16.1057544 14.568386,15.8906316 C14.8280702,15.6755439 14.9937544,15.3507368 14.9937544,14.9879649 L14.9937544,14.9525965 C14.9937544,14.5898596 14.8280702,14.2650526 14.568386,14.0499298 C14.8280702,13.8348421 14.9937544,13.5100702 14.9937544,13.1472982 L14.9937544,13.1411579 C14.9937544,12.778386 14.8280351,12.453614 14.5683509,12.2384912 C14.828,12.0233684 14.9937544,11.6985614 14.9937544,11.3357895 Z M4.90308772,11.1683509 C4.90308772,11.1687368 4.90308772,11.1691228 4.90308772,11.1695088 L4.90308772,17.1800702 C4.90308772,17.3161053 4.79242105,17.4267719 4.65642105,17.4267719 L0.562105263,17.4267719 L0.562105263,10.6730526 L4.65638596,10.6730526 C4.79242105,10.6730526 4.90305263,10.7837193 4.90305263,10.9197193 L4.90305263,11.1683509 L4.90308772,11.1683509 Z" id="Shape" fill-rule="nonzero"></path>
                    <circle id="Oval" cx="3.34287719" cy="12.0610877" r="1"></circle>
                </g>
            </g>
        </g>
    </g>
</svg>