<?xml version="1.0" encoding="UTF-8"?>
<svg width="21px" height="18px" viewBox="0 0 21 18" version="1.1" xmlns="http://www.w3.org/2000/svg" xmlns:xlink="http://www.w3.org/1999/xlink">
    <!-- Generator: Sketch 52.5 (67469) - http://www.bohemiancoding.com/sketch -->
    <title>002-browser</title>
    <desc>Created with Sketch.</desc>
    <g id="Page-1" stroke="none" stroke-width="1" fill="none" fill-rule="evenodd">
        <g id="Volume-Dashboard_All-Copy-14" transform="translate(-135.000000, -404.000000)" fill="#0066A4">
            <g id="Group-24" transform="translate(128.000000, 396.000000)">
                <g id="002-browser" transform="translate(7.000000, 8.000000)">
                    <path d="M11.5828821,1.49777293 L6.28565502,1.49777293 C6.12231878,1.49777293 5.98995197,1.63013974 5.98995197,1.79347598 C5.98995197,1.95681223 6.12235808,2.08917904 6.28565502,2.08917904 L11.5828821,2.08917904 C11.7462183,2.08917904 11.8785852,1.95681223 11.8785852,1.79347598 C11.8785852,1.63013974 11.7462183,1.49777293 11.5828821,1.49777293 Z" id="Path"></path>
                    <circle id="Oval" cx="1.88489083" cy="1.79331878" r="1"></circle>
                    <circle id="Oval" cx="3.35161572" cy="1.79331878" r="1"></circle>
                    <circle id="Oval" cx="4.73737991" cy="1.79331878" r="1"></circle>
                    <circle id="Oval" cx="16.5949782" cy="1.79331878" r="1"></circle>
                    <circle id="Oval" cx="2.09829694" cy="4.89065502" r="1"></circle>
                    <path d="M7.1430131,4.59479476 L3.27100873,4.59479476 C3.10767249,4.59479476 2.97530568,4.72716157 2.97530568,4.89049782 C2.97530568,5.05383406 3.10767249,5.18620087 3.27100873,5.18620087 L7.1430131,5.18620087 C7.30634934,5.18620087 7.43871616,5.05383406 7.43871616,4.89049782 C7.43871616,4.72716157 7.30634934,4.59479476 7.1430131,4.59479476 Z" id="Path"></path>
                    <path d="M16.9754934,4.2990917 L14.0643668,4.2990917 C13.9010306,4.2990917 13.7686638,4.43145852 13.7686638,4.59479476 C13.7686638,4.758131 13.9010306,4.89049782 14.0643668,4.89049782 L16.9754934,4.89049782 C17.1388297,4.89049782 17.2711965,4.758131 17.2711965,4.59479476 C17.2711965,4.43149782 17.1388297,4.2990917 16.9754934,4.2990917 Z" id="Path"></path>
                    <path d="M16.9754934,5.57060699 L14.0643668,5.57060699 C13.9010306,5.57060699 13.7686638,5.7029738 13.7686638,5.86631004 C13.7686638,6.02964629 13.9010306,6.1620131 14.0643668,6.1620131 L16.9754934,6.1620131 C17.1388297,6.1620131 17.2711965,6.02964629 17.2711965,5.86631004 C17.2711965,5.7029738 17.1388297,5.57060699 16.9754934,5.57060699 Z" id="Path"></path>
                    <circle id="Oval" cx="2.09829694" cy="6.13257642" r="1"></circle>
                    <path d="M5.30296507,5.83671616 L3.27100873,5.83671616 C3.10767249,5.83671616 2.97530568,5.96908297 2.97530568,6.13241921 C2.97530568,6.29575546 3.10767249,6.42812227 3.27100873,6.42812227 L5.30296507,6.42812227 C5.46630131,6.42812227 5.59866812,6.29575546 5.59866812,6.13241921 C5.59866812,5.96908297 5.46630131,5.83671616 5.30296507,5.83671616 Z" id="Path"></path>
                    <circle id="Oval" cx="2.09829694" cy="9.79899563" r="1"></circle>
                    <path d="M6.3300655,9.50341048 L3.27100873,9.50341048 C3.10767249,9.50341048 2.97530568,9.63577729 2.97530568,9.79911354 C2.97530568,9.96244978 3.10767249,10.0948166 3.27100873,10.0948166 L6.3300655,10.0948166 C6.49340175,10.0948166 6.62576856,9.96244978 6.62576856,9.79911354 C6.62576856,9.63577729 6.49340175,9.50341048 6.3300655,9.50341048 Z" id="Path"></path>
                    <circle id="Oval" cx="2.09829694" cy="11.011441" r="1"></circle>
                    <path d="M6.3300655,10.7157773 L3.27100873,10.7157773 C3.10767249,10.7157773 2.97530568,10.8481441 2.97530568,11.0114803 C2.97530568,11.1748166 3.10767249,11.3071834 3.27100873,11.3071834 L6.3300655,11.3071834 C6.49340175,11.3071834 6.62576856,11.1748166 6.62576856,11.0114803 C6.62576856,10.8481441 6.49340175,10.7157773 6.3300655,10.7157773 Z" id="Path"></path>
                    <path d="M8.39063319,9.50341048 L7.31043668,9.50341048 C7.14710044,9.50341048 7.01473362,9.63577729 7.01473362,9.79911354 C7.01473362,9.96244978 7.14710044,10.0948166 7.31043668,10.0948166 L8.39063319,10.0948166 C8.55396943,10.0948166 8.68633624,9.96244978 8.68633624,9.79911354 C8.68633624,9.63577729 8.55396943,9.50341048 8.39063319,9.50341048 Z" id="Path"></path>
                    <path d="M8.54756332,5.83671616 L6.51556769,5.83671616 C6.35223144,5.83675546 6.21986463,5.96912227 6.21986463,6.13241921 C6.21986463,6.29575546 6.35223144,6.42812227 6.51556769,6.42812227 L8.54756332,6.42812227 C8.71089956,6.42812227 8.84326638,6.29575546 8.84326638,6.13241921 C8.84326638,5.96908297 8.71089956,5.83671616 8.54756332,5.83671616 Z" id="Path"></path>
                    <circle id="Oval" cx="2.09829694" cy="7.37449782" r="1"></circle>
                    <path d="M7.31043668,7.07867686 L4.50471616,7.07867686 C4.34137991,7.07867686 4.2090131,7.21104367 4.2090131,7.37437991 C4.2090131,7.53771616 4.34137991,7.67008297 4.50471616,7.67008297 L7.31047598,7.67008297 C7.47381223,7.67008297 7.60617904,7.53771616 7.60617904,7.37437991 C7.60613974,7.21104367 7.47377293,7.07867686 7.31043668,7.07867686 Z" id="Path"></path>
                    <circle id="Oval" cx="2.09829694" cy="8.55707424" r="1"></circle>
                    <path d="M18.5479389,6.83257205 L18.4389956,6.83257205 L18.4389956,5.12131441 C18.4389956,4.95797817 18.3066288,4.82561135 18.1432926,4.82561135 C17.9799563,4.82561135 17.8475895,4.95797817 17.8475895,5.12131441 L17.8475895,6.83257205 L13.1093057,6.83257205 L13.1093057,3.51534498 L17.8475895,3.51534498 L17.8475895,4.00421397 C17.8475895,4.16755022 17.9799563,4.29991703 18.1432926,4.29991703 C18.3066288,4.29991703 18.4389956,4.16755022 18.4389956,4.00421397 L18.4389956,1.52968559 C18.4389956,0.703218341 17.7666288,0.0308515284 16.9402009,0.0308515284 L1.49883406,0.0308515284 C0.672366812,0.0308515284 0,0.703218341 0,1.52968559 L0,13.7927162 C0,14.6191441 0.672366812,15.2915109 1.49883406,15.2915109 L9.18196507,15.2915109 L9.18196507,16.3948166 C9.18196507,17.2629039 9.88820961,17.9691485 10.7562969,17.9691485 L18.5479389,17.9691485 C19.4160262,17.9691485 20.1222707,17.2629039 20.1222707,16.3948166 L20.1222707,8.40690393 C20.1222707,7.53881659 19.4160262,6.83257205 18.5479389,6.83257205 Z M9.47766812,11.2653275 C9.31433188,11.2653275 9.18196507,11.3976943 9.18196507,11.5610306 L9.18196507,14.7001834 L1.49883406,14.7001834 L1.49883406,14.7001048 C0.998489083,14.7001048 0.591406114,14.2930611 0.591406114,13.7927162 L0.591406114,3.51534498 L2.03124891,3.51534498 C2.19458515,3.51534498 2.32695197,3.38297817 2.32695197,3.21964192 C2.32695197,3.05630568 2.19458515,2.92393886 2.03124891,2.92393886 L0.591406114,2.92393886 L0.591406114,1.52968559 C0.591406114,1.02934061 0.998489083,0.622257642 1.49883406,0.622257642 L16.9402009,0.622257642 C17.4405459,0.622257642 17.8475895,1.02934061 17.8475895,1.52968559 L17.8475895,2.92397817 L3.35149782,2.92397817 C3.18816157,2.92397817 3.05579476,3.05634498 3.05579476,3.21968122 C3.05579476,3.38301747 3.18816157,3.51538428 3.35149782,3.51538428 L12.5178996,3.51538428 L12.5178996,6.83261135 L10.7562969,6.83261135 C10.4460917,6.83261135 10.1567948,6.92316157 9.91273362,7.07871616 L8.54756332,7.07871616 C8.38422707,7.07871616 8.25186026,7.21108297 8.25186026,7.37441921 C8.25186026,7.53775546 8.38422707,7.67012227 8.54756332,7.67012227 L9.36562009,7.67012227 C9.27015721,7.84957205 9.20849345,8.04949782 9.1889607,8.26152838 L4.50471616,8.26152838 C4.34137991,8.26152838 4.2090131,8.3938952 4.2090131,8.55723144 C4.2090131,8.72056769 4.34137991,8.8529345 4.50471616,8.8529345 L9.18196507,8.8529345 L9.18196507,10.0948166 C9.18196507,10.2581528 9.31433188,10.3905197 9.47766812,10.3905197 C9.64100437,10.3905197 9.77337118,10.2581528 9.77337118,10.0948166 L9.77337118,8.40694323 C9.77337118,7.86493886 10.2142926,7.42401747 10.7562969,7.42401747 L18.5479389,7.42401747 C19.0899432,7.42401747 19.5308646,7.86493886 19.5308646,8.40694323 L19.5308646,12.3101135 L17.9490262,12.3101135 C17.6409825,12.3101135 17.3500742,12.4735677 17.1899214,12.7366507 L17.0552358,12.9577991 L16.0972664,10.067345 C16.0279782,9.85830131 15.8409432,9.71850655 15.6208952,9.7111179 C15.4016332,9.70420087 15.2049694,9.83071179 15.1218079,10.0345677 L13.7273974,13.4537031 L12.9985546,11.37431 C12.9389738,11.2044498 12.7987074,11.0791572 12.6232271,11.0391485 C12.4476288,10.9992183 12.2670393,11.0512533 12.1397424,11.1785109 L11.09531,12.2229432 C11.0391092,12.2791441 10.9643974,12.3101135 10.8849301,12.3101135 L9.77337118,12.3101135 L9.77337118,11.5610306 C9.77337118,11.3976943 9.64100437,11.2653275 9.47766812,11.2653275 Z M19.5309039,16.3947773 C19.5308646,16.936821 19.0899432,17.3777424 18.5479389,17.3777424 L10.7562969,17.3777424 C10.2142926,17.3777424 9.77337118,16.936821 9.77337118,16.3948166 L9.77337118,12.901441 L10.8849301,12.901441 C11.12231,12.901441 11.3455415,12.8090044 11.513476,12.6410699 L12.4778515,11.676655 L13.2314148,13.8265939 C13.3036114,14.0324934 13.4912358,14.1690655 13.7093581,14.1745284 C13.7138777,14.1746463 13.7183581,14.1746856 13.7228777,14.1746856 C13.9354978,14.1746856 14.1233974,14.0487642 14.2040437,13.8509214 L15.5965677,10.436345 L16.5422751,13.289738 C16.6067686,13.4843581 16.7734061,13.6197511 16.9771441,13.6429389 C17.1811179,13.6660087 17.3736943,13.5718035 17.4803188,13.3966769 L17.6950611,13.0441441 C17.7486681,12.9560699 17.8459782,12.9014017 17.9490655,12.9014017 L19.5309039,12.9014017 L19.5309039,16.3947773 Z" id="Shape" fill-rule="nonzero"></path>
                </g>
            </g>
        </g>
    </g>
</svg>