<?xml version="1.0" encoding="UTF-8"?>
<svg width="35px" height="32px" viewBox="0 0 35 32" version="1.1" xmlns="http://www.w3.org/2000/svg" xmlns:xlink="http://www.w3.org/1999/xlink">
    <!-- Generator: Sketch 52.2 (67145) - http://www.bohemiancoding.com/sketch -->
    <title>Group 39</title>
    <desc>Created with Sketch.</desc>
    <g id="Page-1" stroke="none" stroke-width="1" fill="none" fill-rule="evenodd">
        <g id="Group-39" fill="#0066A4">
            <path d="M19.5101351,9.93243243 L19.5101351,8.92701014 C19.5101351,7.82971284 18.6494426,6.97635135 17.5519088,6.97635135 L17.526723,6.97635135 C16.4293074,6.97635135 15.4898649,7.82971284 15.4898649,8.92701014 L15.4898649,9.93243243 L19.5101351,9.93243243 Z" id="Path"></path>
            <path d="M32.1226689,-2.84217094e-14 L2.95608108,-2.84217094e-14 C1.32609797,-2.84217094e-14 0,1.34572635 0,2.97570946 L0,20.4560811 C0,22.0860642 1.32609797,23.4121622 2.95608108,23.4121622 L13.0067568,23.4121622 L13.0067568,26.722973 L21.875,26.722973 L21.875,23.4121622 L32.1226689,23.4121622 C33.752652,23.4121622 35,22.0860642 35,20.4560811 L35,2.97570946 C35,1.34572635 33.752652,-2.84217094e-14 32.1226689,-2.84217094e-14 Z M21.875,12.2906757 L21.875,16.4291892 C21.875,17.7331757 20.9126182,18.8006757 19.6086318,18.8006757 L15.4701182,18.8006757 C14.1661318,18.8006757 13.0067568,17.7332939 13.0067568,16.4291892 L13.0067568,12.2906757 C13.0067568,11.641875 13.2432432,11.0552703 13.7162162,10.6291216 L13.7162162,8.92701014 C13.7162162,6.85172297 15.4513176,5.2027027 17.5268412,5.2027027 L17.552027,5.2027027 C19.6274324,5.2027027 21.2837838,6.85172297 21.2837838,8.92701014 L21.2837838,10.696875 C21.6385135,11.1166385 21.875,11.6748649 21.875,12.2906757 Z" id="Shape" fill-rule="nonzero"></path>
            <path d="M25.2229392,28.4966216 L9.86503378,28.4966216 C8.47543919,28.4966216 7.29277027,29.7972973 7.01005068,31.2162162 L28.0686993,31.2162162 C27.7878716,29.7972973 26.6122973,28.4966216 25.2229392,28.4966216 Z" id="Path"></path>
            <path d="M15.815625,13.3971959 C15.815625,13.9880574 16.0810811,14.5085642 16.5540541,14.814223 L16.5540541,16.1818243 C16.5540541,16.6487669 16.9741723,17.0267905 17.4411149,17.0267905 C17.9078209,17.0267905 18.3277027,16.6487669 18.3277027,16.1818243 L18.3277027,14.8859966 C18.9189189,14.5948818 19.22375,14.0373649 19.22375,13.3970777 C19.22375,12.4559797 18.4607264,11.6929561 17.5196284,11.6929561 C16.5786486,11.6930743 15.815625,12.456098 15.815625,13.3971959 Z" id="Path"></path>
        </g>
    </g>
</svg>