<?xml version="1.0" encoding="UTF-8"?>
<svg width="180px" height="242px" viewBox="0 0 180 242" version="1.1" xmlns="http://www.w3.org/2000/svg" xmlns:xlink="http://www.w3.org/1999/xlink">
    <!-- Generator: Sketch 52.2 (67145) - http://www.bohemiancoding.com/sketch -->
    <title>lock</title>
    <desc>Created with Sketch.</desc>
    <g id="lock" stroke="none" stroke-width="1" fill="none" fill-rule="evenodd">
        <g fill="#FFFFFF" fill-rule="nonzero" id="Shape">
            <path d="M174.999844,90.75 L159.999844,90.75 L159.999844,70.5831758 C159.999844,31.6632422 128.59875,0 90,0 C51.40125,0 20.0001562,31.6632422 20.0001562,70.5831758 L20.0001562,90.75 L5.00015625,90.75 C2.23640625,90.75 0,93.005043 0,95.7918242 L0,221.833648 C0,232.955723 8.96953125,242 20.0001562,242 L160.000312,242 C171.030469,242 180,232.955723 180,221.833176 L180,95.7918242 C180,93.005043 177.763594,90.75 174.999844,90.75 Z M104.970938,196.068684 C105.127031,197.491379 104.673281,198.919273 103.725938,199.987949 C102.778594,201.056152 101.421094,201.666824 100.000313,201.666824 L80.0001563,201.666824 C78.579375,201.666824 77.221875,201.056152 76.2745313,199.987949 C75.3271875,198.919746 74.8729688,197.491852 75.0295313,196.068684 L78.18375,167.468254 C73.0617188,163.711582 70.0003125,157.768875 70.0003125,151.25 C70.0003125,140.127926 78.9698438,131.083176 90.0004688,131.083176 C101.031094,131.083176 110.000625,140.127453 110.000625,151.25 C110.000625,157.768875 106.939219,163.711582 101.817188,167.468254 L104.970938,196.068684 Z M129.999844,90.75 L50.0001563,90.75 L50.0001563,70.5831758 C50.0001563,48.3437539 67.944375,30.25 90,30.25 C112.055625,30.25 129.999844,48.3437539 129.999844,70.5831758 L129.999844,90.75 Z"></path>
        </g>
    </g>
</svg>