<?xml version="1.0" encoding="UTF-8"?>
<svg width="17px" height="23px" viewBox="0 0 17 23" version="1.1" xmlns="http://www.w3.org/2000/svg" xmlns:xlink="http://www.w3.org/1999/xlink">
    <!-- Generator: Sketch 52.2 (67145) - http://www.bohemiancoding.com/sketch -->
    <title>lock small</title>
    <desc>Created with Sketch.</desc>
    <g id="lock-small" stroke="none" stroke-width="1" fill="none" fill-rule="evenodd">
        <g id="lock-copy" fill="#FFFFFF" fill-rule="nonzero">
            <path d="M16.527763,8.625 L15.1110964,8.625 L15.1110964,6.70831836 C15.1110964,3.00931641 12.1454375,0 8.5,0 C4.8545625,0 1.88890365,3.00931641 1.88890365,6.70831836 L1.88890365,8.625 L0.472236979,8.625 C0.211216146,8.625 0,8.83932227 0,9.10418164 L0,21.0833633 C0,22.1404199 0.847122396,23 1.88890365,23 L15.1111406,23 C16.1528776,23 17,22.1404199 17,21.0833184 L17,9.10418164 C17,8.83932227 16.7887839,8.625 16.527763,8.625 Z M9.91392188,18.634627 C9.92866406,18.7698418 9.8858099,18.9055508 9.79633854,19.0071191 C9.70686719,19.1086426 9.57865885,19.1666816 9.44447396,19.1666816 L7.55557031,19.1666816 C7.42138542,19.1666816 7.29317708,19.1086426 7.20370573,19.0071191 C7.11423438,18.9055957 7.07133594,18.7698867 7.0861224,18.634627 L7.38402083,15.9164043 C6.90027344,15.5593652 6.61114063,14.9945625 6.61114063,14.375 C6.61114063,13.3179434 7.45826302,12.4583184 8.50004427,12.4583184 C9.54182552,12.4583184 10.3889479,13.3178984 10.3889479,14.375 C10.3889479,14.9945625 10.0998151,15.5593652 9.61606771,15.9164043 L9.91392188,18.634627 Z M12.277763,8.625 L4.72223698,8.625 L4.72223698,6.70831836 C4.72223698,4.5946543 6.41696875,2.875 8.5,2.875 C10.5830312,2.875 12.277763,4.5946543 12.277763,6.70831836 L12.277763,8.625 Z" id="Shape"></path>
        </g>
    </g>
</svg>