<?xml version="1.0" encoding="UTF-8"?>
<svg width="22px" height="28px" viewBox="0 0 22 28" version="1.1" xmlns="http://www.w3.org/2000/svg" xmlns:xlink="http://www.w3.org/1999/xlink">
    <!-- Generator: Sketch 52.2 (67145) - http://www.bohemiancoding.com/sketch -->
    <title>man-user</title>
    <desc>Created with Sketch.</desc>
    <g id="Page-1" stroke="none" stroke-width="1" fill="none" fill-rule="evenodd">
        <g id="file-transfer-02" transform="translate(-456.000000, -132.000000)">
            <g id="man-user" transform="translate(455.000000, 132.000000)">
                <path d="M1.00069282,24.0592438 C0.99949282,23.8286838 0.99829282,23.9942838 1.00069282,24.0592438 Z" id="Path" fill="#000000"></path>
                <path d="M22.9989918,24.1047161 C23.0027918,24.0415961 23.0002918,23.6667961 22.9989918,24.1047161 Z" id="Path" fill="#000000"></path>
                <path d="M12.0000851,14 C15.3136069,14 18,10.8660244 18,7.00004089 C18,3.13397557 17.1180177,0 12.0000851,0 C6.88215259,0 6,3.13397557 6,7.00004089 C6,10.8660244 8.68639305,14 12.0000851,14 Z" id="Path" fill="#FFFFFF"></path>
                <path d="M22.9876848,23.8060954 C22.8798239,17.1139556 21.9909834,15.2070591 15.1892958,14 C15.1892958,14 14.2318541,15.1996633 12.000248,15.1996633 C9.7686418,15.1996633 8.8110348,14 8.8110348,14 C2.08356877,15.193893 1.14067384,17.0725067 1.01669572,23.5886915 C1.00652951,24.1207825 1.00181835,24.1487403 1,24.0869732 C1.00041326,24.2027052 1.00090917,24.416777 1.00090917,24.7900615 C1.00090917,24.7900615 2.62022872,28 12.000248,28 C21.3801019,28 22.9995867,24.7900615 22.9995867,24.7900615 C22.9995867,24.5502264 22.999752,24.3834552 23,24.2699988 C22.9981817,24.3081969 22.994545,24.2341577 22.9876848,23.8060954 Z" id="Path" fill="#FFFFFF"></path>
            </g>
        </g>
    </g>
</svg>