<?xml version="1.0" encoding="UTF-8"?>
<svg width="18px" height="18px" viewBox="0 0 18 18" version="1.1" xmlns="http://www.w3.org/2000/svg" xmlns:xlink="http://www.w3.org/1999/xlink">
    <!-- Generator: Sketch 55.1 (78136) - https://sketchapp.com -->
    <title>conection copy</title>
    <desc>Created with Sketch.</desc>
    <g id="Package-" stroke="none" stroke-width="1" fill="none" fill-rule="evenodd">
        <g id="05" transform="translate(-748.000000, -93.000000)" fill="#FFFFFF">
            <g id="conection-copy" transform="translate(748.000000, 93.000000)">
                <g id="Group-4">
                    <path d="M9.3,8.4 C10.128,8.399025 10.799025,7.728 10.8,6.9 C10.8,6.734325 10.665675,6.6 10.5,6.6 L10.2,6.6 L10.2,0.3 C10.2,0.134325 10.065675,7.27418126e-13 9.9,7.27418126e-13 L0.9,7.27418126e-13 C0.734325,7.27418126e-13 0.6,0.134325 0.6,0.3 L0.6,6.6 L0.3,6.6 C0.134325,6.6 -3.64153152e-13,6.734325 -3.64153152e-13,6.9 C0.000975,7.728 0.672,8.399025 1.5,8.4 L9.3,8.4 Z M1.2,0.6 L9.6,0.6 L9.6,6.6 L1.2,6.6 L1.2,0.6 Z M0.6513,7.2 L10.1487,7.2 C10.0210875,7.559325 9.6813,7.79955 9.3,7.8 L1.5,7.8 C1.1187,7.79955 0.7789125,7.559325 0.6513,7.2 Z" id="Shape" fill-rule="nonzero"></path>
                    <polygon id="Path" points="1.5 6.3 3.6 6.3 3.6 5.7 2.1 5.7 2.1 1.5 8.7 1.5 8.7 5.7 7.2 5.7 7.2 6.3 9.3 6.3 9.3 0.9 1.5 0.9"></polygon>
                    <rect id="Rectangle" x="4.2" y="5.7" width="1" height="1"></rect>
                    <rect id="Rectangle" x="5.1" y="5.7" width="1" height="1"></rect>
                    <rect id="Rectangle" x="6" y="5.7" width="1" height="1"></rect>
                    <path d="M17.7,16.2 L17.4,16.2 L17.4,9.9 C17.4,9.734325 17.265675,9.6 17.1,9.6 L8.1,9.6 C7.934325,9.6 7.8,9.734325 7.8,9.9 L7.8,16.2 L7.5,16.2 C7.334325,16.2 7.2,16.334325 7.2,16.5 C7.200975,17.328 7.872,17.999025 8.7,18 L16.5,18 C17.328,17.999025 17.999025,17.328 18,16.5 C18,16.334325 17.865675,16.2 17.7,16.2 Z M8.4,10.2 L16.8,10.2 L16.8,16.2 L8.4,16.2 L8.4,10.2 Z M16.5,17.4 L16.5,17.4 L8.7,17.4 C8.3187,17.39955 7.9789125,17.159325 7.8513,16.8 L17.3487,16.8 C17.2210875,17.159325 16.8813,17.39955 16.5,17.4 Z" id="Shape" fill-rule="nonzero"></path>
                    <polygon id="Path" points="8.7 15.9 10.8 15.9 10.8 15.3 9.3 15.3 9.3 11.1 15.9 11.1 15.9 15.3 14.4 15.3 14.4 15.9 16.5 15.9 16.5 10.5 8.7 10.5"></polygon>
                    <rect id="Rectangle" x="11.4" y="15.3" width="1" height="1"></rect>
                    <rect id="Rectangle" x="12.3" y="15.3" width="1" height="1"></rect>
                    <rect id="Rectangle" x="13.2" y="15.3" width="1" height="1"></rect>
                    <path d="M15.3,5.3574 L15.3,9 L15.9,9 L15.9,5.3574 C16.540725,5.193225 16.9270125,4.540725 16.7628375,3.9 C16.5986625,3.259275 15.9461625,2.8729875 15.3054375,3.0371625 C14.881875,3.1456875 14.551125,3.4764375 14.4426,3.9 L10.8,3.9 L10.8,4.5 L14.4426,4.5 C14.5523625,4.9198125 14.8801875,5.2476375 15.3,5.3574 Z M15.6,3.6 C15.9313875,3.6 16.2,3.8686125 16.2,4.2 C16.2,4.5313875 15.9313875,4.8 15.6,4.8 C15.2686125,4.8 15,4.5313875 15,4.2 C15,3.8686125 15.2686125,3.6 15.6,3.6 Z" id="Shape" fill-rule="nonzero"></path>
                    <path d="M7.2,13.5 L3.5574,13.5 C3.4476375,13.0801875 3.1198125,12.7523625 2.7,12.6426 L2.7,9 L2.1,9 L2.1,12.6426 C1.459275,12.806775 1.0729875,13.459275 1.2371625,14.1 C1.4013375,14.740725 2.0538375,15.1270125 2.6945625,14.9628375 C3.118125,14.854275 3.448875,14.5235625 3.5574,14.1 L7.2,14.1 L7.2,13.5 Z M2.4,14.4 C2.0686125,14.4 1.8,14.1313875 1.8,13.8 C1.8,13.4686125 2.0686125,13.2 2.4,13.2 C2.7313875,13.2 3,13.4686125 3,13.8 C3,14.1313875 2.7313875,14.4 2.4,14.4 Z" id="Shape" fill-rule="nonzero"></path>
                </g>
            </g>
        </g>
    </g>
</svg>