<?xml version="1.0" encoding="UTF-8"?>
<svg width="24px" height="24px" viewBox="0 0 24 24" version="1.1" xmlns="http://www.w3.org/2000/svg" xmlns:xlink="http://www.w3.org/1999/xlink">
    <!-- Generator: Sketch 52.5 (67469) - http://www.bohemiancoding.com/sketch -->
    <title>search icon</title>
    <desc>Created with Sketch.</desc>
    <g id="Page-1" stroke="none" stroke-width="1" fill="none" fill-rule="evenodd">
        <g id="Volume-Dashboard_All-Copy-8" transform="translate(-483.000000, -28.000000)" fill="#0066a4" stroke="#FFFFFF" stroke-width="0.1">
            <path d="M506.529122,49.5291067 L506.529165,49.5291489 L501.578335,44.5820869 C503.006193,42.790326 503.796455,40.5924626 503.796455,38.2821066 C503.796455,32.6404189 499.143299,28.05 493.423895,28.05 C487.703361,28.05 483.05,32.640216 483.05,38.2821066 C483.05,43.9229291 487.703559,48.5129505 493.423895,48.5129505 C495.601417,48.5129505 497.682754,47.837386 499.499663,46.6080659 L504.49321,51.5350539 C504.767111,51.8047059 505.131457,51.95 505.511874,51.95 C505.891116,51.95 506.255422,51.8045862 506.529161,51.5350941 C507.090286,50.981404 507.090286,50.0840551 506.529122,49.5291067 Z M485.92692,38.2821066 C485.92692,34.2051794 489.29068,30.8882859 493.423895,30.8882859 C497.556608,30.8882859 500.918199,34.2046836 500.918199,38.2821066 C500.918199,42.3592919 497.556849,45.6746646 493.423895,45.6746646 C489.290438,45.6746646 485.92692,42.3587962 485.92692,38.2821066 Z" id="search-icon"></path>
        </g>
    </g>
</svg>