<?xml version="1.0" encoding="UTF-8"?>
<svg width="22px" height="28px" viewBox="0 0 22 28" version="1.1" xmlns="http://www.w3.org/2000/svg" xmlns:xlink="http://www.w3.org/1999/xlink">
    <!-- Generator: Sketch 52.2 (67145) - http://www.bohemiancoding.com/sketch -->
    <title>Group 42</title>
    <desc>Created with Sketch.</desc>
    <g id="Page-1" stroke="none" stroke-width="1" fill="none" fill-rule="evenodd">
        <g id="Group-42" fill="#073754">
            <path d="M11.0000851,14 C14.3136069,14 17,10.8660244 17,7.00004089 C17,3.13397557 16.1180177,0 11.0000851,0 C5.88215259,0 5,3.13397557 5,7.00004089 C5,10.8660244 7.68639305,14 11.0000851,14 Z" id="Path-Copy-3"></path>
            <path d="M21.9876848,23.8060954 C21.8798239,17.1139556 20.9909834,15.2070591 14.1892958,14 C14.1892958,14 13.2318541,15.1996633 11.000248,15.1996633 C8.7686418,15.1996633 7.8110348,14 7.8110348,14 C1.08356877,15.193893 0.14067384,17.0725067 0.0166957201,23.5886915 C0.00652951431,24.1207825 0.00181834576,24.1487403 0,24.0869732 C0.000413260399,24.2027052 0.000909172878,24.416777 0.000909172878,24.7900615 C0.000909172878,24.7900615 1.62022872,28 11.000248,28 C20.3801019,28 21.9995867,24.7900615 21.9995867,24.7900615 C21.9995867,24.5502264 21.999752,24.3834552 22,24.2699988 C21.9981817,24.3081969 21.994545,24.2341577 21.9876848,23.8060954 Z" id="Path-Copy-4"></path>
        </g>
    </g>
</svg>