<?xml version="1.0" encoding="UTF-8"?>
<svg width="18px" height="10px" viewBox="0 0 18 10" version="1.1" xmlns="http://www.w3.org/2000/svg" xmlns:xlink="http://www.w3.org/1999/xlink">
    <!-- Generator: Sketch 52.5 (67469) - http://www.bohemiancoding.com/sketch -->
    <title>speedometer</title>
    <desc>Created with Sketch.</desc>
    <g id="Page-1" stroke="none" stroke-width="1" fill="none" fill-rule="evenodd" opacity="0.202915737">
        <g id="Volume-Dashboard_All-Copy-14" transform="translate(-139.000000, -631.000000)" fill="#000000" fill-rule="nonzero">
            <g id="speedometer" transform="translate(139.000000, 631.000000)">
                <path d="M15.4057215,2.72612658 C15.3910633,2.70721519 15.3754937,2.68875949 15.3581772,2.67136709 C15.3407848,2.65405063 15.3223291,2.63848101 15.3034937,2.62382278 C13.6788608,1.02486076 11.4516456,0.0365316456 8.99756962,0.0363037975 L8.99658228,0.0362278481 L8.99559494,0.0363037975 C6.54151899,0.0365316456 4.3143038,1.02486076 2.68974684,2.62382278 C2.67083544,2.63848101 2.65237975,2.65397468 2.63506329,2.67136709 C2.61767089,2.68875949 2.60217722,2.70721519 2.58751899,2.72612658 C0.988329114,4.35091139 0,6.57850633 0,9.03288608 C0,9.34746835 0.254962025,9.60250633 0.569620253,9.60250633 L17.4235443,9.60250633 C17.7382025,9.60250633 17.9931646,9.34746835 17.9931646,9.03288608 C17.9931646,6.57850633 17.0048354,4.35091139 15.4057215,2.72612658 Z M11.2907089,8.46326582 L10.906481,8.46326582 C10.7967342,8.09483544 10.5833165,7.77129114 10.3001013,7.52597468 L10.4682532,7.18496203 C10.8687342,7.50455696 11.1634177,7.95106329 11.2907089,8.46326582 Z M9.26065823,7.05789873 C9.17422785,7.04643038 9.08620253,7.03997468 8.99658228,7.03997468 C8.09392405,7.03997468 7.3318481,7.64027848 7.08668354,8.46334177 L6.70253165,8.46334177 C6.95817722,7.4341519 7.8895443,6.66903797 8.99665823,6.66903797 C9.14551899,6.66903797 9.29103797,6.6835443 9.43237975,6.70997468 L9.26065823,7.05789873 Z M12.0669873,8.46326582 C11.9172152,7.65417722 11.4548354,6.9538481 10.8099494,6.49222785 L12.1721772,3.73048101 C12.3113165,3.44832911 12.1954177,3.10678481 11.9132658,2.96764557 C11.6312658,2.82843038 11.2896456,2.94432911 11.1504304,3.22655696 L9.77825316,6.00858228 C9.5283038,5.94394937 9.26643038,5.9095443 8.99658228,5.9095443 C7.46886076,5.9095443 6.19473418,7.01225316 5.92617722,8.46334177 L1.15967089,8.46334177 C1.28475949,6.72448101 1.97863291,5.14086076 3.05521519,3.89711392 L3.4438481,4.28574684 C3.55511392,4.39693671 3.70093671,4.45260759 3.84668354,4.45260759 C3.99243038,4.45260759 4.13825316,4.39701266 4.24951899,4.28574684 C4.47197468,4.06329114 4.47197468,3.70260759 4.24951899,3.48022785 L3.86081013,3.09151899 C5.10448101,2.01501266 6.68817722,1.32129114 8.42703797,1.19612658 L8.42703797,1.84481013 C8.42703797,2.15939241 8.682,2.41443038 8.99665823,2.41443038 C9.31131646,2.41443038 9.56627848,2.15939241 9.56627848,1.84481013 L9.56627848,1.19612658 C11.3051392,1.32129114 12.8887595,2.01501266 14.1325063,3.09151899 L13.7437975,3.48022785 C13.5213418,3.70268354 13.5213418,4.06336709 13.7437975,4.28574684 C13.8550633,4.39693671 14.0008861,4.45260759 14.1466329,4.45260759 C14.2923797,4.45260759 14.4382025,4.39701266 14.5494684,4.28574684 L14.9381013,3.89711392 C16.0146835,5.14086076 16.708557,6.72448101 16.8336456,8.46334177 L12.0669873,8.46334177 L12.0669873,8.46326582 Z" id="Shape"></path>
            </g>
        </g>
    </g>
</svg>