<?xml version="1.0" encoding="UTF-8"?>
<svg width="11px" height="30px" viewBox="0 0 11 30" version="1.1" xmlns="http://www.w3.org/2000/svg" xmlns:xlink="http://www.w3.org/1999/xlink">
    <!-- Generator: Sketch 52.2 (67145) - http://www.bohemiancoding.com/sketch -->
    <title>Path 7</title>
    <desc>Created with Sketch.</desc>
    <g id="Page-1" stroke="none" stroke-width="1" fill="none" fill-rule="evenodd">
        <g id="Path-7" fill="#0066A4">
            <path d="M9.66246094,23.5543359 L7.52068359,23.5543359 L7.52068359,6.42398438 L9.66246094,6.42398438 C9.95238281,6.42398438 10.2036328,6.31798828 10.4152148,6.10605469 C10.6269141,5.89423828 10.7328516,5.64328125 10.7328516,5.35341797 C10.7328516,5.0634375 10.6273242,4.81253906 10.4148047,4.60042969 L6.13236328,0.3178125 C5.92054688,0.105996094 5.66953125,8.70414851e-14 5.37966797,8.70414851e-14 C5.08974609,8.70414851e-14 4.83890625,0.105996094 4.62691406,0.3178125 L0.344414063,4.60042969 C0.132421875,4.81248047 0.0266015625,5.0634375 0.0266015625,5.35341797 C0.0266015625,5.64322266 0.132480469,5.89417969 0.344414063,6.10605469 C0.556464844,6.31798828 0.807363281,6.42398438 1.09734375,6.42398438 L3.23865234,6.42398438 L3.23865234,23.5543359 L1.09751953,23.5543359 C0.807363281,23.5543359 0.55640625,23.6602734 0.344589844,23.8719727 C0.13265625,24.0841406 0.0267773438,24.3351563 0.0267773438,24.6251367 C0.0267773438,24.9148828 0.13265625,25.1657813 0.344589844,25.3778906 L4.62714844,29.6603906 C4.83908203,29.8723242 5.08992188,29.9782031 5.37990234,29.9782031 C5.66994141,29.9782031 5.92095703,29.8723242 6.13277344,29.6603906 L10.4152148,25.3778906 C10.6269141,25.1657813 10.7328516,24.9149414 10.7328516,24.6251367 C10.7328516,24.3352148 10.6269141,24.0841992 10.4152148,23.8719727 C10.2036328,23.6602734 9.95255859,23.5543359 9.66246094,23.5543359 Z" id="Path"></path>
        </g>
    </g>
</svg>